<svg
    width="18px"
    height="18px"
    viewBox="0 0 406 449"
    version="1.1"
    xmlns="http://www.w3.org/2000/svg"
    xmlns:xlink="http://www.w3.org/1999/xlink"
  >
    <defs>
      <path
        id="path-1"
        d="M161.183,6.123 L146.31,86.833 L138.629,45.833 C138.054,42.762 135.471,40.486 132.361,40.294 C129.251,40.11 126.41,42.07 125.461,45.044 L112.641,85.343 L94.183,34.596 C93.208,31.908 90.661,30.251 87.807,30.251 L87.791,30.251 C84.943,30.251 82.397,31.886 81.41,34.563 L64.185,81.104 L60.092,75.489 C58.59,73.431 56.062,72.385 53.552,72.776 C51.036,73.169 48.95,74.936 48.145,77.357 L40.245,101.114 L28.979,47.586 C28.3,44.363 25.429,42.074 22.135,42.177 C18.849,42.268 16.098,44.7 15.599,47.956 L0.983,143.177 C0.411,146.9 2.958,150.38 6.671,150.953 C7.023,151.008 7.37,151.033 7.715,151.033 C11.015,151.033 13.912,148.621 14.43,145.251 L23.37,87.009 L32.109,128.531 C32.742,131.543 35.313,133.756 38.378,133.931 C41.447,134.12 44.249,132.2 45.219,129.279 L56.885,94.204 L60.677,99.407 C62.157,101.435 64.63,102.486 67.109,102.139 C69.591,101.79 71.682,100.107 72.552,97.751 L87.74,56.586 L106.671,108.712 C107.666,111.451 110.322,113.268 113.2,113.205 C116.11,113.147 118.661,111.256 119.545,108.477 L130.229,74.959 L139.678,125.468 C140.282,128.693 143.092,131.167 146.365,131.167 L146.374,131.167 C149.649,131.167 152.458,128.678 153.055,125.448 L174.564,8.598 C175.246,4.897 172.804,1.34 169.109,0.655 C168.692,0.578 168.276,0.54 167.866,0.54 C164.649,0.541 161.788,2.839 161.183,6.123 Z"
      ></path>
    </defs>
    <g
      id="Page-1"
      stroke="none"
      stroke-width="1"
      fill="none"
      fill-rule="evenodd"
    >
      <g transform="translate(0.000000, -1.000000)">
        <g
          id="Group-6"
          transform="translate(0.000000, 0.254000)"
          fill="#FFFFFF"
        >
          <g id="Group-3">
            <path
              id="Fill-1"
              d="M299.5013,204.7842 C291.3593,234.7232 275.3123,258.7882 251.8023,276.3102 C247.1023,279.5522 241.8613,282.9482 236.2223,286.4102 C214.7353,298.7702 192.4153,305.0382 169.8803,305.0382 C158.2513,305.0382 146.1833,303.3842 134.0153,300.1222 C98.0073,290.4612 70.4773,269.2172 52.1433,236.9022 C33.3683,204.6352 28.9783,171.2992 38.7223,134.9912 C48.5403,98.4242 69.0783,71.5552 101.4603,52.8782 C123.0063,40.6472 145.3453,34.4462 167.8573,34.4462 C179.5653,34.4462 191.6763,36.1032 203.8543,39.3742 C240.0013,49.0742 267.5263,70.2002 285.6923,102.2122 C304.6643,135.1302 309.1793,168.6902 299.5013,204.7842 M401.4843,421.0162 L287.1183,290.4642 C308.6773,269.8742 323.7813,244.0552 332.0703,213.5832 C344.0273,168.9992 338.2673,125.8782 314.9753,85.4652 C292.2313,45.3862 257.7863,18.9162 212.5973,6.7912 C168.3143,-5.0898 125.3043,0.5572 84.7103,23.5972 C44.6563,46.6982 18.2233,81.2342 6.1463,126.2462 C-5.8837,171.0582 -0.2307,213.9692 22.9003,253.7072 C45.7813,294.0382 80.2243,320.6152 125.2723,332.6982 C140.2873,336.7282 155.2963,338.7712 169.8803,338.7712 C198.4373,338.7712 226.5233,330.9272 253.3603,315.4562 L253.5423,315.3482 C255.7473,313.9992 257.9753,312.5992 260.3293,311.0842 L376.1043,443.2362 C379.2983,446.8992 383.9303,449.0002 388.8133,449.0002 C392.9103,449.0002 396.8593,447.5132 399.9213,444.8202 C403.3133,441.8472 405.3433,437.7322 405.6373,433.2332 C405.9313,428.7392 404.4563,424.4002 401.4843,421.0162"
            ></path>
          </g>
          <path
            id="Fill-4"
            d="M86.7152,242.0332 C86.3702,242.0332 86.0232,242.0082 85.6712,241.9532 C81.9582,241.3802 79.4112,237.9002 79.9832,234.1772 L94.5992,138.9562 C95.0982,135.7002 97.8492,133.2682 101.1352,133.1782 C104.4292,133.0742 107.3002,135.3622 107.9792,138.5862 L119.2452,192.1142 L127.1452,168.3562 C127.9502,165.9352 130.0362,164.1692 132.5522,163.7752 C135.0622,163.3852 137.5902,164.4302 139.0922,166.4892 L143.1852,172.1042 L160.4092,125.5622 C161.3972,122.8862 163.9432,121.2512 166.7902,121.2512 L166.8072,121.2512 C169.6602,121.2512 172.2072,122.9072 173.1832,125.5952 L191.6412,176.3432 L204.4612,136.0442 C205.4092,133.0702 208.2512,131.1102 211.3612,131.2942 C214.4712,131.4862 217.0542,133.7622 217.6292,136.8332 L225.3102,177.8332 L240.1832,97.1232 C240.8652,93.4202 244.4142,90.9712 248.1102,91.6552 C251.8042,92.3402 254.2462,95.8962 253.5642,99.5982 L232.0552,216.4482 C231.4582,219.6782 228.6502,222.1672 225.3732,222.1672 L225.3642,222.1672 C222.0922,222.1672 219.2822,219.6922 218.6782,216.4682 L209.2292,165.9592 L198.5452,199.4762 C197.6602,202.2562 195.1102,204.1462 192.2002,204.2052 C189.3222,204.2672 186.6662,202.4512 185.6712,199.7122 L166.7402,147.5862 L151.5522,188.7512 C150.6822,191.1062 148.5912,192.7902 146.1092,193.1382 C143.6302,193.4862 141.1562,192.4352 139.6772,190.4062 L135.8852,185.2042 L124.2192,220.2792 C123.2482,223.2002 120.4462,225.1192 117.3782,224.9302 C114.3132,224.7562 111.7422,222.5432 111.1092,219.5302 L102.3702,178.0092 L93.4302,236.2512 C92.9122,239.6212 90.0152,242.0332 86.7152,242.0332"
          ></path>
        </g>
        <g id="Group-10" transform="translate(79.000000, 91.254000)">
          <mask id="mask-2" fill="white">
            <use xlink:href="#path-1"></use>
          </mask>
          <g id="Clip-8"></g>
          <polygon
            id="Fill-7"
            fill="#FFFFFF"
            mask="url(#mask-2)"
            points="-58.392 210.329 233.973 210.329 233.973 -58.754 -58.392 -58.754"
          ></polygon>
          <polygon
            id="Stroke-9"
            stroke="#FFFFFF"
            stroke-width="11"
            mask="url(#mask-2)"
            points="-58.392 210.329 233.973 210.329 233.973 -58.754 -58.392 -58.754"
          ></polygon>
        </g>
        <path
          id="Stroke-11"
          d="M86.7152,242.2872 C86.3702,242.2872 86.0232,242.2622 85.6712,242.2072 C81.9582,241.6342 79.4112,238.1542 79.9832,234.4312 L94.5992,139.2102 C95.0982,135.9542 97.8492,133.5222 101.1352,133.4322 C104.4292,133.3282 107.3002,135.6162 107.9792,138.8402 L119.2452,192.3682 L127.1452,168.6102 C127.9502,166.1892 130.0362,164.4232 132.5522,164.0292 C135.0622,163.6392 137.5902,164.6842 139.0922,166.7432 L143.1852,172.3582 L160.4092,125.8162 C161.3972,123.1402 163.9432,121.5052 166.7902,121.5052 L166.8072,121.5052 C169.6602,121.5052 172.2072,123.1612 173.1832,125.8492 L191.6412,176.5972 L204.4612,136.2982 C205.4092,133.3242 208.2512,131.3642 211.3612,131.5482 C214.4712,131.7402 217.0542,134.0162 217.6292,137.0872 L225.3102,178.0872 L240.1832,97.3772 C240.8652,93.6742 244.4142,91.2252 248.1102,91.9092 C251.8042,92.5942 254.2462,96.1502 253.5642,99.8522 L232.0552,216.7022 C231.4582,219.9322 228.6502,222.4212 225.3732,222.4212 L225.3642,222.4212 C222.0922,222.4212 219.2822,219.9462 218.6782,216.7222 L209.2292,166.2132 L198.5452,199.7302 C197.6602,202.5102 195.1102,204.4002 192.2002,204.4592 C189.3222,204.5212 186.6662,202.7052 185.6712,199.9662 L166.7402,147.8402 L151.5522,189.0052 C150.6822,191.3602 148.5912,193.0442 146.1092,193.3922 C143.6302,193.7402 141.1562,192.6892 139.6772,190.6602 L135.8852,185.4582 L124.2192,220.5332 C123.2482,223.4542 120.4462,225.3732 117.3782,225.1842 C114.3132,225.0102 111.7422,222.7972 111.1092,219.7842 L102.3702,178.2632 L93.4302,236.5052 C92.9122,239.8752 90.0152,242.2872 86.7152,242.2872"
          stroke="#FFFFFF"
          stroke-width="11"
        ></path>
      </g>
    </g>
  </svg>

