<svg id="Layer_1" width="56px" height="56px" data-name="Layer 1" xmlns="http://www.w3.org/2000/svg" viewBox="0 0 56.69 56.69"><defs><style>.round-stats-hover-1{fill:#3d4c4d;}.round-stats-hover-2,.round-stats-hover-3{fill:none;stroke-linecap:round;stroke-miterlimit:10;}.round-stats-hover-2{stroke:#3d4c4d;}.round-stats-hover-3{stroke:#3d4d4e;stroke-width:0.25px;}</style></defs><title>icon_04_hover</title><path class="round-stats-hover-1" d="M28.35,1A27.35,27.35,0,1,1,1,28.35,27.38,27.38,0,0,1,28.35,1m0-1A28.35,28.35,0,1,0,56.69,28.35,28.35,28.35,0,0,0,28.35,0h0Z" transform="translate(0 0)"/><polyline class="round-stats-hover-2" points="10.35 14.99 10.35 41.7 46.35 41.7"/><line class="round-stats-hover-3" x1="16.21" y1="34.39" x2="42.07" y2="34.39"/><line class="round-stats-hover-3" x1="16.21" y1="31.37" x2="42.07" y2="31.37"/><line class="round-stats-hover-3" x1="16.21" y1="28.35" x2="42.07" y2="28.35"/><line class="round-stats-hover-3" x1="16.21" y1="25.32" x2="42.07" y2="25.32"/><line class="round-stats-hover-3" x1="16.21" y1="22.3" x2="42.07" y2="22.3"/><path class="round-stats-hover-2" d="M13.22,32.45s4.26,4,5.84,4,1.51-2.24,4.43-2.24c1.21,0,1.16-7.66,3.15-7.66,1.66,0,2.86,2,3.56,1.86a0.88,0.88,0,0,0,1-.83c0-.45.92-9.63,2.73-9.07s1.9,10.68,4.8,19c1.49,2.86,2.75-4.2,3-5.05,0.58-1.82,1.43-1.13,1.78-1.78" transform="translate(0 0)"/></svg>