
<svg width="56px" height="56px" viewBox="0 0 96 97" version="1.1" xmlns="http://www.w3.org/2000/svg" xmlns:xlink="http://www.w3.org/1999/xlink" xmlns:sketch="http://www.bohemiancoding.com/sketch/ns">
    <g id="Page-1" stroke="none" stroke-width="1" fill="none" fill-rule="evenodd" sketch:type="MSPage">
        <g id="Styleguide_Extras" sketch:type="MSArtboardGroup" transform="translate(-619.000000, -781.000000)">
            <g id="University_Icons" sketch:type="MSLayerGroup" transform="translate(108.000000, 545.000000)">
                <g id="Mousover" transform="translate(0.000000, 220.000000)" sketch:type="MSShapeGroup">
                    <g id="Nyttige-3" transform="translate(457.000000, 0.000000)">
                        <g id="Imported-Layers" transform="translate(54.800000, 17.000000)">
                            <path d="M56.2338043,73.7469268 L28.3147041,73.7469268 C27.9979227,73.7469268 27.7410326,73.4894506 27.7410326,73.1719466 L27.7410326,21.7983845 C27.7410326,21.4808804 27.9979227,21.2234043 28.3147041,21.2234043 L66.6327476,21.2234043 C66.9496437,21.2234043 67.2064191,21.4808804 67.2064191,21.7983845 L67.2064191,62.7491652 C67.2064191,62.901765 67.1460688,63.0479249 67.0384481,63.1557912 L56.6393901,73.5784576 C56.5317693,73.6863239 56.385942,73.7469268 56.2338043,73.7469268 L56.2338043,73.7469268 Z M28.8883756,72.5969663 L55.9960749,72.5969663 L66.0590761,62.5110084 L66.0590761,22.3733647 L28.8883756,22.3733647 L28.8883756,72.5969663 L28.8883756,72.5969663 Z" id="Fill-1" fill="#435050"></path>
                            <path d="M55.9163345,73.5464887 C55.6087319,73.5464887 55.3592995,73.302927 55.3592995,73.0025574 L55.3592995,62.522968 C55.3592995,62.2225984 55.6087319,61.9790367 55.9163345,61.9790367 L66.6493841,61.9790367 C66.9569867,61.9790367 67.2065338,62.2225984 67.2065338,62.522968 C67.2065338,62.8233377 66.9569867,63.0668993 66.6493841,63.0668993 L56.4734843,63.0668993 L56.4734843,73.0025574 C56.4734843,73.302927 56.2240519,73.5464887 55.9163345,73.5464887" id="Fill-2" fill="#435050"></path>
                            <path d="M32.6756401,40.148073 C32.6466123,40.148073 32.6172403,40.1458881 32.5876389,40.1412882 C32.274529,40.0929899 32.0597464,39.79952 32.1079348,39.4855808 L33.3404106,31.4560971 C33.3825181,31.1816016 33.6145109,30.9765636 33.8915942,30.9688589 C34.1693659,30.9601192 34.4114553,31.1530825 34.4687077,31.4249332 L35.4187077,35.9386429 L36.0848551,33.9352968 C36.1527778,33.7311788 36.3286655,33.582144 36.5408092,33.5490251 C36.752494,33.5160212 36.9656703,33.6042232 37.092337,33.7778672 L37.4374577,34.2513059 L38.8898792,30.326721 C38.9731763,30.1009838 39.1878442,29.9631035 39.4279831,29.9631035 L39.4293599,29.9631035 C39.6699577,29.9631035 39.8847403,30.1028237 39.9670048,30.3294809 L41.5234903,34.6087136 L42.6045169,31.2105806 C42.6844867,30.9597742 42.9241667,30.7945249 43.1864493,30.8100494 C43.4486171,30.8262638 43.6663829,31.0181922 43.7149155,31.2770483 L44.3625906,34.7344043 L45.6167512,27.9285935 C45.6743478,27.6162643 45.9735749,27.4097314 46.2851932,27.4674594 C46.5966969,27.5251874 46.8026449,27.8250971 46.7450483,28.1373113 L44.9313285,37.9906322 C44.8810749,38.2629429 44.6442633,38.4728107 44.3679831,38.4728107 L44.36718,38.4728107 C44.091244,38.4728107 43.8543176,38.2642078 43.8033756,37.9922422 L43.0065459,33.7331338 L42.1056522,36.5595065 C42.0310749,36.7938684 41.8159481,36.9532529 41.5706461,36.9581978 C41.3279831,36.9634876 41.1040217,36.8103129 41.0200362,36.5792858 L39.4237379,32.1837921 L38.1429589,35.6550626 C38.0696437,35.8536608 37.8932971,35.9956809 37.6840217,36.0250049 C37.4749758,36.0543289 37.2663889,35.9657819 37.1416727,35.7946678 L36.8219082,35.3559579 L35.8381763,38.3136561 C35.756256,38.5599777 35.5200181,38.7217771 35.2612923,38.7059076 C35.0027959,38.6911881 34.7860628,38.5045496 34.7325966,38.2505233 L33.9957729,34.7492388 L33.2418539,39.6604898 C33.1982548,39.944645 32.9538708,40.148073 32.6756401,40.148073" id="Fill-3" fill="#435050"></path>
                            <path d="M45.6068841,68.3717817 L31.7240338,68.3717817 C31.4072524,68.3717817 31.1503623,68.1143056 31.1503623,67.7968015 C31.1503623,67.4792975 31.4072524,67.2218213 31.7240338,67.2218213 L45.6068841,67.2218213 C45.9236655,67.2218213 46.1805556,67.4792975 46.1805556,67.7968015 C46.1805556,68.1143056 45.9236655,68.3717817 45.6068841,68.3717817" id="Fill-4" fill="#435050"></path>
                            <path d="M62.7022947,45.1425811 L48.9341787,45.1425811 C48.6173973,45.1425811 48.3605072,44.885105 48.3605072,44.5676009 C48.3605072,44.2500968 48.6173973,43.9926207 48.9341787,43.9926207 L62.7022947,43.9926207 C63.0190761,43.9926207 63.2759662,44.2500968 63.2759662,44.5676009 C63.2759662,44.885105 63.0190761,45.1425811 62.7022947,45.1425811" id="Fill-5" fill="#435050"></path>
                            <path d="M62.7022947,47.7874901 L48.9341787,47.7874901 C48.6173973,47.7874901 48.3605072,47.530014 48.3605072,47.2125099 C48.3605072,46.8950058 48.6173973,46.6375297 48.9341787,46.6375297 L62.7022947,46.6375297 C63.0190761,46.6375297 63.2759662,46.8950058 63.2759662,47.2125099 C63.2759662,47.530014 63.0190761,47.7874901 62.7022947,47.7874901" id="Fill-6" fill="#435050"></path>
                            <path d="M45.6068841,45.1425811 L31.7240338,45.1425811 C31.4072524,45.1425811 31.1503623,44.885105 31.1503623,44.5676009 C31.1503623,44.2500968 31.4072524,43.9926207 31.7240338,43.9926207 L45.6068841,43.9926207 C45.9236655,43.9926207 46.1805556,44.2500968 46.1805556,44.5676009 C46.1805556,44.885105 45.9236655,45.1425811 45.6068841,45.1425811" id="Fill-7" fill="#435050"></path>
                            <path d="M45.6068841,47.7874901 L31.7240338,47.7874901 C31.4072524,47.7874901 31.1503623,47.530014 31.1503623,47.2125099 C31.1503623,46.8950058 31.4072524,46.6375297 31.7240338,46.6375297 L45.6068841,46.6375297 C45.9236655,46.6375297 46.1805556,46.8950058 46.1805556,47.2125099 C46.1805556,47.530014 45.9236655,47.7874901 45.6068841,47.7874901" id="Fill-8" fill="#435050"></path>
                            <path d="M62.7022947,50.317403 L48.9341787,50.317403 C48.6173973,50.317403 48.3605072,50.0599269 48.3605072,49.7424228 C48.3605072,49.4249188 48.6173973,49.1674426 48.9341787,49.1674426 L62.7022947,49.1674426 C63.0190761,49.1674426 63.2759662,49.4249188 63.2759662,49.7424228 C63.2759662,50.0599269 63.0190761,50.317403 62.7022947,50.317403" id="Fill-9" fill="#435050"></path>
                            <path d="M62.7022947,52.962312 L48.9341787,52.962312 C48.6173973,52.962312 48.3605072,52.7048359 48.3605072,52.3873318 C48.3605072,52.0698277 48.6173973,51.8123516 48.9341787,51.8123516 L62.7022947,51.8123516 C63.0190761,51.8123516 63.2759662,52.0698277 63.2759662,52.3873318 C63.2759662,52.7048359 63.0190761,52.962312 62.7022947,52.962312" id="Fill-10" fill="#435050"></path>
                            <path d="M62.7022947,34.9079333 L48.9341787,34.9079333 C48.6173973,34.9079333 48.3605072,34.6504572 48.3605072,34.3329531 C48.3605072,34.015449 48.6173973,33.7579729 48.9341787,33.7579729 L62.7022947,33.7579729 C63.0190761,33.7579729 63.2759662,34.015449 63.2759662,34.3329531 C63.2759662,34.6504572 63.0190761,34.9079333 62.7022947,34.9079333" id="Fill-11" fill="#435050"></path>
                            <path d="M62.7022947,32.2630243 L48.9341787,32.2630243 C48.6173973,32.2630243 48.3605072,32.0055482 48.3605072,31.6880441 C48.3605072,31.3705401 48.6173973,31.1130639 48.9341787,31.1130639 L62.7022947,31.1130639 C63.0190761,31.1130639 63.2759662,31.3705401 63.2759662,31.6880441 C63.2759662,32.0055482 63.0190761,32.2630243 62.7022947,32.2630243" id="Fill-12" fill="#435050"></path>
                            <path d="M62.7022947,29.7331114 L48.9341787,29.7331114 C48.6173973,29.7331114 48.3605072,29.4756353 48.3605072,29.1581312 C48.3605072,28.8406271 48.6173973,28.583151 48.9341787,28.583151 L62.7022947,28.583151 C63.0190761,28.583151 63.2759662,28.8406271 63.2759662,29.1581312 C63.2759662,29.4756353 63.0190761,29.7331114 62.7022947,29.7331114" id="Fill-13" fill="#435050"></path>
                            <path d="M62.7022947,37.4378463 L48.9341787,37.4378463 C48.6173973,37.4378463 48.3605072,37.1803701 48.3605072,36.8628661 C48.3605072,36.545362 48.6173973,36.2878858 48.9341787,36.2878858 L62.7022947,36.2878858 C63.0190761,36.2878858 63.2759662,36.545362 63.2759662,36.8628661 C63.2759662,37.1803701 63.0190761,37.4378463 62.7022947,37.4378463" id="Fill-14" fill="#435050"></path>
                            <path d="M62.7022947,40.0827552 L48.9341787,40.0827552 C48.6173973,40.0827552 48.3605072,39.8252791 48.3605072,39.507775 C48.3605072,39.190271 48.6173973,38.9327948 48.9341787,38.9327948 L62.7022947,38.9327948 C63.0190761,38.9327948 63.2759662,39.190271 63.2759662,39.507775 C63.2759662,39.8252791 63.0190761,40.0827552 62.7022947,40.0827552" id="Fill-15" fill="#435050"></path>
                            <path d="M62.7022947,42.6126682 L48.9341787,42.6126682 C48.6173973,42.6126682 48.3605072,42.355192 48.3605072,42.037688 C48.3605072,41.7201839 48.6173973,41.4627078 48.9341787,41.4627078 L62.7022947,41.4627078 C63.0190761,41.4627078 63.2759662,41.7201839 63.2759662,42.037688 C63.2759662,42.355192 63.0190761,42.6126682 62.7022947,42.6126682" id="Fill-16" fill="#435050"></path>
                            <path d="M38.7415278,57.3883947 C38.6138285,57.3883947 38.4854408,57.3459612 38.3788527,57.2586792 C38.1335507,57.0577811 38.09718,56.6955436 38.2976208,56.449682 L42.3515278,51.4764482 C42.5519686,51.2304716 42.9133816,51.1940179 43.1587983,51.394916 C43.4041002,51.5958141 43.440471,51.9580516 43.2400302,52.2040281 L39.1861232,57.177262 C39.0727657,57.3162922 38.9077778,57.3883947 38.7415278,57.3883947" id="Fill-17" fill="#435050"></path>
                            <path d="M38.741872,63.8109237 C34.892192,63.8109237 31.7601751,60.6718767 31.7601751,56.8134145 C31.7601751,52.9550673 34.892192,49.8159053 38.741872,49.8159053 C42.5915519,49.8159053 45.7234541,52.9550673 45.7234541,56.8134145 C45.7234541,60.6718767 42.5915519,63.8109237 38.741872,63.8109237 L38.741872,63.8109237 Z M38.741872,50.9658657 C35.524837,50.9658657 32.9075181,53.5890405 32.9075181,56.8134145 C32.9075181,60.0377885 35.524837,62.6609633 38.741872,62.6609633 C41.958907,62.6609633 44.5761111,60.0377885 44.5761111,56.8134145 C44.5761111,53.5890405 41.958907,50.9658657 38.741872,50.9658657 L38.741872,50.9658657 Z" id="Fill-18" fill="#435050"></path>
                            <path id="Stroke-19"></path>
                            <path d="M38.7415278,57.3883947 C38.623122,57.3883947 38.5037983,57.351826 38.40157,57.2763886 L33.2457548,53.4685246 C33.2006643,53.4352907 33.1607367,53.3955021 33.1271196,53.3505387 C32.9750966,53.1474557 32.9719988,52.8657153 33.1225302,52.6614824 C34.4350906,50.8797337 36.5358756,49.8159053 38.741872,49.8159053 C40.3445954,49.8159053 41.9106039,50.3745561 43.1513406,51.3889362 C43.3967572,51.5896043 43.433587,51.9516118 43.2334903,52.1977033 L39.1865821,57.176572 C39.0735688,57.3157172 38.9084662,57.3883947 38.7415278,57.3883947 L38.7415278,57.3883947 Z M34.4089312,52.8991792 L38.6422826,56.0256916 L41.9639553,51.9390772 C41.0133816,51.3083239 39.8889855,50.9658657 38.741872,50.9658657 C37.0902717,50.9658657 35.5092331,51.6796462 34.4089312,52.8991792 L34.4089312,52.8991792 Z" id="Fill-20" fill="#435050"></path>
                            <path d="M38.7419867,57.3885097 C38.699994,57.3885097 38.6574275,57.3837949 38.6149758,57.3741352 L32.3662017,55.9539341 C32.0574517,55.8837865 31.8637802,55.5760571 31.9335386,55.2666027 C32.1488949,54.3104106 32.5536775,53.427356 33.1366425,52.6417031 C33.3254952,52.3869868 33.6846135,52.3339736 33.9388647,52.5231421 L39.0837802,56.3518204 C39.3015459,56.5138498 39.3763527,56.8066297 39.2631099,57.0535262 C39.1679952,57.2609791 38.9621618,57.3885097 38.7419867,57.3885097 L38.7419867,57.3885097 Z M33.2060568,54.9656581 L36.2156522,55.6496545 L33.7376208,53.805693 C33.5179046,54.1719554 33.3402959,54.5596071 33.2060568,54.9656581 L33.2060568,54.9656581 Z" id="Fill-21" fill="#435050"></path>
                            <path d="M34.479837,62.1830397 C34.3394022,62.1830397 34.203442,62.1312915 34.0981159,62.0372247 C32.6123068,60.7094804 31.7601751,58.8054909 31.7601751,56.8134145 C31.7601751,56.2973123 31.8185749,55.7767252 31.9335386,55.2664877 C31.9670411,55.1176829 32.0582548,54.9883123 32.1869867,54.9068951 C32.3158333,54.8254779 32.4715278,54.7986838 32.619994,54.8324927 L38.8687681,56.2526938 C39.0667995,56.2976572 39.2262802,56.4442772 39.2882367,56.6380455 C39.3500785,56.8318139 39.3052174,57.0439816 39.1701751,57.1958913 L34.9082548,61.9905363 C34.8070592,62.1043824 34.6647886,62.173265 34.5128804,62.1820047 C34.5018659,62.1826947 34.4908514,62.1830397 34.479837,62.1830397 L34.479837,62.1830397 Z M32.9532971,56.0873295 C32.9228925,56.3292812 32.9075181,56.5720378 32.9075181,56.8134145 C32.9075181,58.2853638 33.4645531,59.6998152 34.4520713,60.7749132 L37.6666969,57.1586326 L32.9532971,56.0873295 L32.9532971,56.0873295 Z" id="Fill-22" fill="#435050"></path>
                            <path d="M0.215436269,47.4956083 C0.215436269,21.3010341 21.2546469,0.0662226277 47.2079343,0.0662226277 C73.1611072,0.0662226277 94.2004323,21.3010341 94.2004323,47.4956083 C94.2004323,73.6900669 73.1611072,94.9249939 47.2079343,94.9249939 C21.2546469,94.9249939 0.215436269,73.6900669 0.215436269,47.4956083" id="Fill-1" stroke="#435050"></path>
                        </g>
                    </g>
                </g>
            </g>
        </g>
    </g>
</svg>