<svg width="56px" height="56px" viewBox="0 0 56 56" version="1.1" xmlns="http://www.w3.org/2000/svg" xmlns:xlink="http://www.w3.org/1999/xlink" xmlns:sketch="http://www.bohemiancoding.com/sketch/ns">
    <g id="Page-1" stroke="none" stroke-width="1" fill="none" fill-rule="evenodd" sketch:type="MSPage">
        <g id="02_Products_expand" sketch:type="MSArtboardGroup" transform="translate(-112.000000, -270.000000)">
            <g id="Group" sketch:type="MSLayerGroup" transform="translate(98.000000, 258.000000)">
                <g id="Imported-Layers" transform="translate(14.100000, 12.100000)" sketch:type="MSShapeGroup">
                    <path d="M0.0444071776,27.9371471 C0.0444071776,12.5237082 12.5394853,0.0286980535 27.9528562,0.0286980535 C43.3662271,0.0286980535 55.8613052,12.5237082 55.8613052,27.9371471 C55.8613052,43.350586 43.3662271,55.8455961 27.9528562,55.8455961 C12.5394853,55.8455961 0.0444071776,43.350586 0.0444071776,27.9371471" id="Fill-1" fill="#424F50"></path>
                    <path id="Fill-2" fill="#C2D0C7" d="M10.8414718,38.9525753 L18.4415596,38.9525753 L18.4415596,39.3502678 L10.8414718,39.3502678 L10.8414718,38.9525753 Z"></path>
                    <path d="M14.6415157,16.5170899 C13.3999509,16.5170899 12.3337026,16.8079467 11.8582125,17.2246125 L17.4247509,17.2246125 C16.9492608,16.8079467 15.8830805,16.5170899 14.6415157,16.5170899" id="Fill-3" fill="#C2D0C7"></path>
                    <path d="M10.2228995,17.2246125 L19.1926734,17.2246125 L19.1926734,38.9526433 L10.2228995,38.9526433 L10.2228995,17.2246125 Z" id="Fill-4" fill="#FFFFFF"></path>
                    <path d="M12.1816437,21.2736903 C12.1816437,19.9395028 13.2631251,18.8580214 14.5972445,18.8580214 C15.9315,18.8580214 17.0129814,19.9395028 17.0129814,21.2736903 C17.0129814,22.6078777 15.9315,23.6893591 14.5972445,23.6893591 C13.2631251,23.6893591 12.1816437,22.6078777 12.1816437,21.2736903" id="Fill-5" fill="#CC4D4C"></path>
                    <path d="M12.1816437,28.1377614 C12.1816437,26.803642 13.2631251,25.7221606 14.5972445,25.7221606 C15.9315,25.7221606 17.0129814,26.803642 17.0129814,28.1377614 C17.0129814,29.4719489 15.9315,30.5534983 14.5972445,30.5534983 C13.2631251,30.5534983 12.1816437,29.4719489 12.1816437,28.1377614" id="Fill-6" fill="#E8D83D"></path>
                    <path d="M12.3060246,35.0019006 C12.3060246,33.6677131 13.387574,32.5861637 14.7216934,32.5861637 C16.0558809,32.5861637 17.1374303,33.6677131 17.1374303,35.0019006 C17.1374303,36.3360201 16.0558809,37.4175695 14.7216934,37.4175695 C13.387574,37.4175695 12.3060246,36.3360201 12.3060246,35.0019006" id="Fill-7" fill="#A0CE68"></path>
                    <path d="M13.0604706,19.4098129 C12.8513556,19.5824092 12.6718908,19.7894161 12.5305766,20.0222647 C12.6718908,19.7894161 12.8513556,19.5824092 13.0604706,19.4098129 M13.0841826,19.3964159 C13.0764826,19.4027159 13.0686826,19.4090159 13.0610826,19.4153159 C13.0687826,19.4090159 13.0763826,19.4027159 13.0841826,19.3964159 M13.0844438,19.3919956 C13.0822438,19.3936956 13.0799438,19.3955956 13.0777438,19.3972956 C13.0800438,19.3955956 13.0822438,19.3937956 13.0844438,19.3919956 M13.0906043,19.3869633 C13.0884043,19.3886633 13.0863043,19.3903633 13.0842043,19.3921633 C13.0862043,19.3904633 13.0885043,19.3885633 13.0906043,19.3869633 M13.1014247,19.3794827 C13.0978247,19.3823827 13.0940247,19.3853827 13.0903247,19.3882827 C13.0940247,19.3853827 13.0978247,19.3823827 13.1014247,19.3794827 M13.1059614,19.3744504 C13.1042614,19.3758504 13.1024614,19.3772504 13.1006614,19.3786504 C13.1023614,19.3772504 13.1042614,19.3758504 13.1059614,19.3744504 M13.1125579,19.369282 C13.1108579,19.370582 13.1090579,19.372082 13.1072579,19.373482 C13.1090579,19.371982 13.1108579,19.370682 13.1125579,19.369282 M13.1211624,19.3630255 C13.1187624,19.3648255 13.1166624,19.3665255 13.1142624,19.3683255 C13.1165624,19.3665255 13.1188624,19.3648255 13.1211624,19.3630255 M13.1279111,19.3571771 C13.1265111,19.3582771 13.1249111,19.3594771 13.1235111,19.3605771 C13.1249111,19.3594771 13.1265111,19.3581771 13.1279111,19.3571771 M13.1345156,19.3520088 C13.1332156,19.3530088 13.1318156,19.3540088 13.1305156,19.3551088 C13.1319156,19.3540088 13.1331156,19.3531088 13.1345156,19.3520088 M13.1409001,19.3468404 C13.1400001,19.3475404 13.1391001,19.3482404 13.1382001,19.3489404 C13.1391001,19.3482404 13.1400001,19.3475404 13.1409001,19.3468404 M13.1492687,19.3405159 C13.1484687,19.3411159 13.1476687,19.3416159 13.1467687,19.3423159 C13.1476687,19.3417159 13.1484687,19.3410159 13.1492687,19.3405159 M13.1569732,19.3349395 C13.1558732,19.3357395 13.1548732,19.3364395 13.1537732,19.3372395 C13.1548732,19.3364395 13.1558732,19.3357395 13.1569732,19.3349395 M13.1633618,19.3298392 C13.1628618,19.3302392 13.1621618,19.3306392 13.1616618,19.3310392 C13.1622618,19.3306392 13.1626618,19.3302392 13.1633618,19.3298392 M13.1705624,19.3241948 C13.1703624,19.3242948 13.1702624,19.3243948 13.1701624,19.3244948 C13.1701624,19.3244948 13.1704624,19.3242948 13.1705624,19.3241948 M13.1793349,19.3182103 C13.1786349,19.3187103 13.1779349,19.3192103 13.1772349,19.3196103 C13.1779349,19.3192103 13.1786349,19.3187103 13.1793349,19.3182103 M13.1864195,19.312906 C13.1859195,19.313306 13.1855195,19.313606 13.1849195,19.314006 C13.1855195,19.313606 13.1859195,19.313306 13.1864195,19.312906 M13.2019326,19.3017532 C13.2015326,19.3020532 13.2012326,19.3022532 13.2008326,19.3025532 C13.2012326,19.3022532 13.2015326,19.3020532 13.2019326,19.3017532 M13.2094172,19.2963808 C13.2091172,19.2965808 13.2088172,19.2968808 13.2085172,19.2969808 C13.2088172,19.2968808 13.2092172,19.2965808 13.2094172,19.2963808 M13.2324869,19.2801956 L13.2323869,19.2802956 L13.2324869,19.2801956 M14.2252499,18.8864474 C14.2251499,18.8864474 14.2250499,18.8865474 14.2248499,18.8865474 C14.2249499,18.8865474 14.2251499,18.8864474 14.2252499,18.8864474 M14.254932,18.8820951 L14.254432,18.8820951 L14.254932,18.8820951 M14.2648887,18.880667 C14.2646887,18.880767 14.2642887,18.880767 14.2640887,18.880767 C14.2643887,18.880767 14.2646887,18.880767 14.2648887,18.880667 M14.2844501,18.8780828 L14.2841501,18.8780828 L14.2844501,18.8780828 M14.2948708,18.8767908 C14.2945708,18.8767908 14.2940708,18.8768908 14.2936708,18.8768908 C14.2941708,18.8768908 14.2944708,18.8767908 14.2948708,18.8767908 M14.8950378,18.8761107 C14.8952378,18.8762107 14.8953378,18.8762107 14.8956378,18.8762107 C14.8953378,18.8762107 14.8952378,18.8762107 14.8950378,18.8761107 M14.8850411,18.8749546 C14.8855411,18.8749546 14.8862411,18.8750546 14.8866411,18.8751546 C14.8861411,18.8750546 14.8855411,18.8749546 14.8850411,18.8749546 M14.3142043,18.8743426 C14.3142043,18.8743426 14.3141043,18.8744426 14.3140043,18.8744426 C14.3141043,18.8744426 14.3141043,18.8744426 14.3142043,18.8743426 M14.3254849,18.8731865 C14.3246849,18.8732865 14.3239849,18.8733865 14.3231849,18.8733865 C14.3238849,18.8733865 14.3247849,18.8732865 14.3254849,18.8731865 M14.8657957,18.8727105 L14.8660957,18.8728105 C14.8659957,18.8728105 14.8658957,18.8728105 14.8657957,18.8727105 M14.3340297,18.8721664 L14.3339297,18.8721664 L14.3340297,18.8721664 M14.855391,18.8716224 C14.856091,18.8717224 14.856691,18.8717224 14.857391,18.8718224 C14.856791,18.8717224 14.856091,18.8717224 14.855391,18.8716224 M14.3448904,18.8710103 C14.3444904,18.8711103 14.3441904,18.8711103 14.3437904,18.8712103 C14.3441904,18.8711103 14.3444904,18.8711103 14.3448904,18.8710103 M14.8458023,18.8706023 C14.8466023,18.8707023 14.8473023,18.8708023 14.8481023,18.8709023 C14.8473023,18.8707023 14.8466023,18.8707023 14.8458023,18.8706023 M14.3556071,18.8699903 C14.3548071,18.8700903 14.3539071,18.8701903 14.3531071,18.8702903 C14.3539071,18.8701903 14.3548071,18.8700903 14.3556071,18.8699903 M14.3645758,18.8690382 C14.3641758,18.8691382 14.3637758,18.8692382 14.3633758,18.8692382 C14.3637758,18.8692382 14.3641758,18.8691382 14.3645758,18.8690382 M14.8256729,18.8686302 C14.8263729,18.8687302 14.8271729,18.8688302 14.8278729,18.8688302 C14.8271729,18.8688302 14.8263729,18.8687302 14.8256729,18.8686302 M14.8161522,18.8677461 C14.8169522,18.8678461 14.8176522,18.8678461 14.8184522,18.8679461 C14.8177522,18.8679461 14.8168522,18.8678461 14.8161522,18.8677461 M14.3854692,18.8672021 C14.3847692,18.8673021 14.3840692,18.8673021 14.3833692,18.8673021 C14.3840692,18.8673021 14.3847692,18.8673021 14.3854692,18.8672021 M14.39467,18.866386 C14.39427,18.866386 14.39397,18.866386 14.39357,18.866486 C14.39397,18.866386 14.39427,18.866386 14.39467,18.866386 M14.7967708,18.866114 L14.7972708,18.866114 L14.7967708,18.866114 M14.786094,18.8652299 C14.787094,18.8653299 14.787994,18.8654299 14.789094,18.8655299 C14.788094,18.8654299 14.787094,18.8653299 14.786094,18.8652299 M14.4159954,18.8647539 C14.4152954,18.8647539 14.4142954,18.8648539 14.4134954,18.8648539 C14.4143954,18.8648539 14.4151954,18.8647539 14.4159954,18.8647539 M14.7768454,18.8645499 C14.7775454,18.8646499 14.7783454,18.8646499 14.7790454,18.8647499 C14.7782454,18.8646499 14.7776454,18.8646499 14.7768454,18.8645499 M14.4257201,18.8640058 C14.4248201,18.8641058 14.4240201,18.8642058 14.4232201,18.8642058 C14.4240201,18.8642058 14.4248201,18.8641058 14.4257201,18.8640058 M14.7563759,18.8631218 C14.7571759,18.8632218 14.7579759,18.8632218 14.7588759,18.8633218 C14.7579759,18.8632218 14.7572759,18.8632218 14.7563759,18.8631218 M14.4471215,18.8626457 C14.4460215,18.8626457 14.4447215,18.8627457 14.4436215,18.8628457 C14.4448215,18.8627457 14.4459215,18.8626457 14.4471215,18.8626457 M14.7467192,18.8625097 C14.7477192,18.8626097 14.7487192,18.8626097 14.7497192,18.8627097 C14.7487192,18.8627097 14.7477192,18.8626097 14.7467192,18.8625097 M14.4565782,18.8621017 C14.4554782,18.8622017 14.4543782,18.8622017 14.4532782,18.8622017 C14.4544782,18.8622017 14.4553782,18.8622017 14.4565782,18.8621017 M14.7375386,18.8620337 L14.7380386,18.8620337 L14.7375386,18.8620337 M14.465255,18.8615577 C14.464855,18.8615577 14.464455,18.8615577 14.463955,18.8616577 C14.464255,18.8616577 14.464955,18.8615577 14.465255,18.8615577 M14.7261137,18.8613536 C14.7271137,18.8614536 14.7281137,18.8614536 14.7291137,18.8615536 C14.7282137,18.8614536 14.7270137,18.8614536 14.7261137,18.8613536 M14.4774877,18.8609456 C14.4762877,18.8610456 14.4752877,18.8610456 14.4740877,18.8611456 C14.4751877,18.8610456 14.4763877,18.8610456 14.4774877,18.8609456 M14.7163891,18.8608776 C14.7176891,18.8608776 14.7189891,18.8609776 14.7202891,18.8610776 C14.7189891,18.8609776 14.7176891,18.8608776 14.7163891,18.8608776 M14.4875404,18.8605376 C14.4861404,18.8605376 14.4849404,18.8606376 14.4835404,18.8606376 C14.4848404,18.8606376 14.4862404,18.8605376 14.4875404,18.8605376 M14.7070044,18.8604696 C14.7081044,18.8604696 14.7094044,18.8605696 14.7105044,18.8605696 C14.7093044,18.8605696 14.7081044,18.8604696 14.7070044,18.8604696 M14.4961451,18.8600616 C14.4954451,18.8600616 14.4946451,18.8601616 14.4939451,18.8601616 C14.4946451,18.8601616 14.4954451,18.8600616 14.4961451,18.8600616 M14.6969397,18.8599936 C14.6974397,18.8599936 14.6978397,18.8600936 14.6982397,18.8600936 C14.6978397,18.8600936 14.6973397,18.8599936 14.6969397,18.8599936 M14.5076579,18.8596535 C14.5066579,18.8596535 14.5056579,18.8597535 14.5047579,18.8597535 C14.5056579,18.8597535 14.5066579,18.8596535 14.5076579,18.8596535 M14.6862629,18.8595855 C14.6874629,18.8595855 14.6887629,18.8596855 14.6899629,18.8596855 C14.6887629,18.8596855 14.6875629,18.8595855 14.6862629,18.8595855 M14.5177146,18.8593135 C14.5166146,18.8593135 14.5155146,18.8593135 14.5144146,18.8594135 C14.5156146,18.8593135 14.5165146,18.8593135 14.5177146,18.8593135 M14.6768782,18.8592455 C14.6779782,18.8593455 14.6788782,18.8593455 14.6799782,18.8593455 C14.6789782,18.8593455 14.6778782,18.8593455 14.6768782,18.8592455 M14.5271073,18.8590415 C14.5262073,18.8590415 14.5252073,18.8590415 14.5242073,18.8591415 C14.5252073,18.8590415 14.5262073,18.8590415 14.5271073,18.8590415 M14.5376641,18.8587015 L14.5355641,18.8587015 L14.5376641,18.8587015 M14.6560687,18.8586335 C14.6572687,18.8587335 14.6582687,18.8587335 14.6594687,18.8587335 C14.6583687,18.8587335 14.6572687,18.8587335 14.6560687,18.8586335 M14.5485168,18.8584974 C14.5473168,18.8584974 14.5462168,18.8584974 14.5450168,18.8585974 C14.5462168,18.8584974 14.5473168,18.8584974 14.5485168,18.8584974 M14.646412,18.8584974 L14.650112,18.8584974 L14.646412,18.8584974 M14.5575495,18.8582934 C14.5567495,18.8582934 14.5559495,18.8583934 14.5551495,18.8583934 C14.5559495,18.8583934 14.5567495,18.8582934 14.5575495,18.8582934 M14.6372994,18.8582934 L14.6391994,18.8582934 L14.6372994,18.8582934 M14.5683023,18.8581574 L14.5663023,18.8581574 L14.5683023,18.8581574 M14.6256706,18.8581574 L14.6290706,18.8581574 L14.6256706,18.8581574 M14.579819,18.8580894 L14.575619,18.8580894 L14.579819,18.8580894 M14.6157418,18.8580894 L14.6201418,18.8580894 L14.6157418,18.8580894 M14.5893077,18.8580214 L14.5852077,18.8580214 L14.5893077,18.8580214 M14.6064252,18.8580214 L14.6105252,18.8580214 L14.6064252,18.8580214" id="Fill-8" fill="#BFBFBF"></path>
                    <path d="M14.5972445,18.8580214 L14.5972445,18.8580214 L14.5879959,18.8580214 L14.5852077,18.8580214 C14.5829635,18.8580214 14.5807193,18.8580894 14.5784752,18.8580894 L14.575619,18.8580894 C14.5728988,18.8580894 14.5703146,18.8580894 14.5676624,18.8581574 L14.5663023,18.8581574 C14.5631061,18.8582254 14.5599779,18.8582254 14.5567816,18.8582934 C14.5562376,18.8582934 14.5556936,18.8583614 14.5551495,18.8583614 C14.5524973,18.8583614 14.5499811,18.8584294 14.547397,18.8584974 C14.5465809,18.8584974 14.5458328,18.8584974 14.5450168,18.8585655 C14.5423646,18.8585655 14.5396444,18.8586335 14.5369922,18.8587015 L14.5355641,18.8587015 C14.5323679,18.8588375 14.5293077,18.8589055 14.5261794,18.8590415 C14.5255674,18.8590415 14.5248873,18.8590415 14.5242073,18.8591095 C14.5216911,18.8591095 14.5191749,18.8591775 14.5166588,18.8593135 C14.5158427,18.8593135 14.5152307,18.8593135 14.5144146,18.8593815 C14.5118304,18.8594495 14.5092462,18.8595175 14.50673,18.8596535 C14.50605,18.8596535 14.50537,18.8597215 14.5047579,18.8597215 C14.5016297,18.8598575 14.4985695,18.8599936 14.4954412,18.8600616 C14.4949652,18.8600616 14.4944212,18.8601296 14.4939451,18.8601296 C14.4913609,18.8602656 14.4888448,18.8604016 14.4862606,18.8605376 C14.4853765,18.8605376 14.4844245,18.8606056 14.4835404,18.8606056 C14.4811602,18.8607416 14.47878,18.8608096 14.4763999,18.8609456 C14.4756518,18.8610136 14.4748358,18.8610136 14.4740877,18.8610816 C14.4710275,18.8612176 14.4678993,18.8613536 14.4648391,18.8615577 C14.464635,18.8615577 14.464159,18.8616257 14.463955,18.8616257 C14.4611668,18.8617617 14.4583106,18.8618977 14.4555224,18.8621017 C14.4547063,18.8621697 14.4540943,18.8621697 14.4532782,18.8621697 C14.45083,18.8623737 14.4484499,18.8625097 14.4460017,18.8626457 C14.4451856,18.8626457 14.4444376,18.8627137 14.4436215,18.8627818 C14.4373651,18.8631898 14.4311766,18.8635978 14.4249202,18.8640058 C14.4243082,18.8640738 14.4237641,18.8641418 14.4232201,18.8641418 C14.4204999,18.8643459 14.4179157,18.8645499 14.4151955,18.8647539 C14.4146515,18.8647539 14.4141074,18.8648219 14.4134954,18.8648219 C14.4071029,18.8653659 14.4007105,18.865842 14.394318,18.866386 C14.394046,18.866386 14.393842,18.866386 14.39357,18.866454 C14.3906457,18.866726 14.3877215,18.86693 14.3847973,18.8672021 C14.3843213,18.8672701 14.3838453,18.8672701 14.3833692,18.8672701 C14.3769088,18.8678821 14.3705843,18.8684942 14.3641918,18.8690382 C14.3639198,18.8691062 14.3636478,18.8691742 14.3633758,18.8691742 C14.3605196,18.8694462 14.3576634,18.8697182 14.3548072,18.8699903 C14.3542631,18.8700583 14.3536511,18.8701263 14.3531071,18.8701943 C14.3502509,18.8704663 14.3473946,18.8707383 14.3445384,18.8710103 C14.3442664,18.8710783 14.3440624,18.8710783 14.3437904,18.8711464 C14.3405262,18.8714184 14.3372619,18.8718264 14.3339977,18.8721664 L14.3339297,18.8721664 C14.3308695,18.8725064 14.3278092,18.8728465 14.324749,18.8731865 C14.324273,18.8732545 14.3236609,18.8733225 14.3231849,18.8733225 C14.3201927,18.8736625 14.3172005,18.8740706 14.3141403,18.8743426 C14.3140723,18.8744106 14.3140723,18.8744106 14.3140043,18.8744106 C14.3074758,18.8751586 14.3010153,18.8759067 14.2944869,18.8767908 C14.2942148,18.8767908 14.2940108,18.8768588 14.2936708,18.8768588 C14.2906106,18.8772668 14.2874824,18.8776748 14.2843541,18.8780828 L14.2841501,18.8780828 C14.2776217,18.8789669 14.2711612,18.879783 14.2646327,18.880667 C14.2644967,18.880735 14.2642927,18.880735 14.2640887,18.880735 C14.2609605,18.8812111 14.2579002,18.8816191 14.254772,18.8820951 L14.254432,18.8820951 C14.2447073,18.8835232 14.2348466,18.8849513 14.2251219,18.8864474 C14.2250539,18.8864474 14.2249179,18.8865155 14.2248499,18.8865155 C13.8608198,18.9428235 13.5237197,19.0803973 13.2324549,19.2801956 C13.2324549,19.2801956 13.2324549,19.2801956 13.2323869,19.2802636 C13.2246343,19.285568 13.2168818,19.2910084 13.2091292,19.2963808 C13.2089932,19.2965168 13.2087212,19.2967208 13.2085172,19.2967888 C13.206205,19.2984889 13.2038928,19.300053 13.2015807,19.3017532 C13.2013086,19.3019572 13.2011046,19.3020932 13.2008326,19.3022972 C13.1958682,19.3057655 13.1908359,19.3093697 13.1859395,19.312906 C13.1855995,19.313178 13.1853275,19.313382 13.1849195,19.313654 C13.1828793,19.3151501 13.1807032,19.3166462 13.178663,19.3182103 C13.178187,19.3185504 13.1777109,19.3188904 13.1772349,19.3191624 C13.1749908,19.3208625 13.1727466,19.3224946 13.1704344,19.3241948 C13.1703664,19.3242628 13.1701624,19.3243988 13.1701624,19.3243988 C13.1677142,19.3262349 13.1652661,19.328003 13.1628179,19.3298392 C13.1623418,19.3301112 13.1620698,19.3303832 13.1616618,19.3306552 C13.1597577,19.3320833 13.1578535,19.3334434 13.1559494,19.3349395 C13.1552013,19.3354836 13.1545213,19.3359596 13.1537732,19.3365036 C13.1520051,19.3378637 13.150237,19.3391558 13.1484689,19.3405159 C13.1479248,19.340856 13.1473808,19.341332 13.1467687,19.34174 C13.1445246,19.3434401 13.1422804,19.3451403 13.1400363,19.3468404 C13.1394242,19.3473164 13.1388122,19.3477925 13.1382001,19.3482685 C13.1365,19.3494926 13.1348679,19.3507167 13.1332358,19.3520088 C13.1322837,19.3527568 13.1314676,19.3533689 13.1305156,19.3541169 C13.1291555,19.355137 13.1278634,19.3561571 13.1265033,19.3571771 C13.1255512,19.3578572 13.1244631,19.3587412 13.1235111,19.3594893 C13.121947,19.3606454 13.1204509,19.3618695 13.1189547,19.3630255 C13.1173906,19.3642496 13.1158265,19.3654057 13.1142624,19.3666298 C13.1131743,19.3675139 13.1120182,19.3683979 13.1108622,19.369282 C13.1097061,19.3702341 13.108482,19.3711181 13.1072579,19.3721382 C13.1062378,19.3728863 13.1052858,19.3737023 13.1042657,19.3744504 C13.1031096,19.3754024 13.1018175,19.3763545 13.1006614,19.3773066 C13.0997094,19.3780546 13.0988253,19.3788027 13.0978732,19.3794827 C13.0954251,19.3814549 13.0928409,19.383495 13.0903247,19.3854672 C13.0897127,19.3860112 13.0891686,19.3864872 13.0885566,19.3869633 C13.0871285,19.3880513 13.0855644,19.3893434 13.0842043,19.3904995 C13.0835242,19.3909755 13.0829122,19.3915196 13.0823001,19.3919956 C13.080804,19.3932197 13.0793079,19.3944438 13.0777438,19.3955999 C13.0774038,19.3959399 13.0771318,19.3961439 13.0767917,19.3964159 C13.0714873,19.4007002 13.066319,19.4049845 13.0610826,19.4092689 C13.0608786,19.4094729 13.0606066,19.4096769 13.0604706,19.4098129 C12.8513556,19.5824092 12.6718908,19.7894161 12.5305766,20.0222647 L16.6419468,19.9866302 C16.2693482,19.3959399 15.6477837,18.977914 14.9245519,18.879987 C14.9148273,18.8786269 14.9051706,18.8774028 14.8954459,18.8761787 C14.8952418,18.8761787 14.8951738,18.8761787 14.8950378,18.8761107 C14.8921136,18.8757707 14.8891214,18.8754307 14.8861292,18.8750906 C14.8858572,18.8750226 14.8853811,18.8749546 14.8850411,18.8749546 C14.8786487,18.8742066 14.8723922,18.8734585 14.8659998,18.8727785 L14.8657957,18.8727105 C14.8628035,18.8723704 14.8598113,18.8720984 14.8567511,18.8717584 C14.8562751,18.8716904 14.855867,18.8716904 14.855391,18.8716224 C14.8527388,18.8713504 14.8500186,18.8710103 14.8473664,18.8708063 C14.8468224,18.8707383 14.8463464,18.8706703 14.8458023,18.8706023 C14.8396139,18.8699903 14.8333574,18.8693782 14.827169,18.8687662 C14.8266929,18.8687662 14.8261489,18.8686982 14.8256729,18.8686302 C14.8230207,18.8683582 14.8204365,18.8681541 14.8177163,18.8678821 C14.8171723,18.8678141 14.8166962,18.8678141 14.8161522,18.8677461 C14.8098277,18.8672021 14.8035033,18.866658 14.7971108,18.866114 L14.7967708,18.866114 C14.7939146,18.865842 14.7909904,18.865638 14.7881342,18.8654339 C14.7873861,18.8653659 14.7867741,18.8652979 14.786094,18.8652299 C14.7835099,18.8650259 14.7809257,18.8648219 14.7783415,18.8646859 C14.7778655,18.8646179 14.7773214,18.8646179 14.7768454,18.8645499 C14.7705889,18.8640738 14.7643325,18.8636658 14.758076,18.8632578 C14.757464,18.8631898 14.75692,18.8631898 14.7563759,18.8631218 C14.7538597,18.8629858 14.7512755,18.8628498 14.7487594,18.8626457 C14.7480793,18.8625777 14.7473993,18.8625777 14.7467192,18.8625097 C14.743795,18.8623737 14.7408028,18.8621697 14.7378786,18.8620337 L14.7375386,18.8620337 C14.7343423,18.8617617 14.7313501,18.8616257 14.7281539,18.8614897 C14.7274738,18.8614217 14.7267938,18.8614217 14.7261137,18.8613536 C14.7237336,18.8612176 14.7214214,18.8610816 14.7190412,18.8610136 C14.7181572,18.8609456 14.7172731,18.8608776 14.7163891,18.8608776 C14.7140089,18.8607416 14.7116967,18.8606056 14.7093845,18.8605376 C14.7086365,18.8605376 14.7077524,18.8604696 14.7070044,18.8604696 C14.7039442,18.8602656 14.7009519,18.8601296 14.6978237,18.8600616 C14.6975517,18.8600616 14.6972797,18.8599936 14.6969397,18.8599936 C14.6942195,18.8599255 14.6914993,18.8597895 14.6887791,18.8596535 C14.687963,18.8596535 14.687079,18.8595855 14.6862629,18.8595855 C14.6838147,18.8595175 14.6814345,18.8593815 14.6789864,18.8593135 C14.6782383,18.8593135 14.6776263,18.8593135 14.6768782,18.8592455 C14.673818,18.8591775 14.6707578,18.8591095 14.6676976,18.8589735 L14.6676296,18.8589735 C14.6645693,18.8589055 14.6615091,18.8588375 14.6583809,18.8587015 C14.6575648,18.8587015 14.6568848,18.8587015 14.6560687,18.8586335 C14.6537566,18.8586335 14.6513084,18.8585655 14.6489282,18.8584974 L14.646412,18.8584974 C14.6438279,18.8584294 14.6411757,18.8583614 14.6385915,18.8582934 L14.6372994,18.8582934 C14.6341712,18.8582254 14.6311109,18.8582254 14.6279827,18.8581574 L14.6256706,18.8581574 C14.6233584,18.8580894 14.6210462,18.8580894 14.6187341,18.8580894 L14.6157418,18.8580894 C14.6136337,18.8580894 14.6113215,18.8580214 14.6092134,18.8580214 L14.6064252,18.8580214 L14.5972445,18.8580214" id="Fill-9" fill="#993A39"></path>
                    <path d="M14.5954764,25.7216845 C13.7190977,25.7216845 12.9517308,26.1881979 12.5280605,26.8864039 L12.5305766,26.8864039 C12.9541109,26.18847 13.7212738,25.7221606 14.5972445,25.7221606 C14.7892223,25.7221606 14.9758956,25.7445342 15.1548844,25.7868332 C14.9753516,25.7441942 14.7880662,25.7216845 14.5954764,25.7216845" id="Fill-10" fill="#BFBFBF"></path>
                    <path d="M14.5972445,25.7221606 C13.7212738,25.7221606 12.9541109,26.18847 12.5305766,26.8864039 L16.6407908,26.8507693 C16.308587,26.3240036 15.778421,25.9345398 15.1548844,25.7868332 C14.9758956,25.7445342 14.7892223,25.7221606 14.5972445,25.7221606" id="Fill-11" fill="#AEA22E"></path>
                    <path d="M14.7188372,32.5861637 C13.8427305,32.5861637 13.0756356,33.0524731 12.6521013,33.7505431 L12.6549575,33.7505431 C13.0782198,33.0529491 13.8447027,32.5867758 14.7200613,32.5861637 L14.7188372,32.5861637" id="Fill-12" fill="#BFBFBF"></path>
                    <path d="M14.7200613,32.5861637 C13.8447027,32.5867758 13.0782198,33.0529491 12.6549575,33.7505431 L16.7634715,33.7147725 C16.3359249,33.037036 15.5805949,32.5866398 14.7200613,32.5861637" id="Fill-13" fill="#789A4E"></path>
                    <path d="M40.2160377,15.6889266 L43.8407651,15.7017796 L42.8292607,19.1826086 C42.7244652,19.5432384 42.93188,19.9205974 43.2925099,20.0253929 C43.6532077,20.1301884 44.0304987,19.9227736 44.1353622,19.5621438 L45.6504426,14.3480747 L40.2208661,14.3288973 C39.8452752,14.3275372 39.5397293,14.6309069 39.5383692,15.0064978 C39.5370091,15.3820887 39.8404468,15.6876345 40.2160377,15.6889946 L40.2160377,15.6889266" id="Fill-14" fill="#ECEFF0"></path>
                    <path d="M23.1216545,38.4907543 L23.1216545,32.2343066 C23.1216545,31.8587157 22.8171967,31.5542579 22.4416058,31.5542579 C22.066015,31.5542579 21.7615572,31.8587157 21.7615572,32.2343066 L21.7615572,38.4907543 C21.7615572,38.8662771 22.066015,39.1708029 22.4416058,39.1708029 C22.8171967,39.1708029 23.1216545,38.8662771 23.1216545,38.4907543" id="Fill-15" fill="#75BFA1"></path>
                    <path d="M26.2498783,38.4907543 L26.2498783,28.8340633 C26.2498783,28.4584724 25.9454206,28.1540146 25.5698297,28.1540146 C25.1942388,28.1540146 24.889781,28.4584724 24.889781,28.8340633 L24.889781,38.4907543 C24.889781,38.8662771 25.1942388,39.1708029 25.5698297,39.1708029 C25.9454206,39.1708029 26.2498783,38.8662771 26.2498783,38.4907543" id="Fill-16" fill="#75BFA1"></path>
                    <path d="M29.4461071,38.5587591 L29.4461071,26.5218978 C29.4461071,26.1463069 29.1416493,25.8418491 28.7660584,25.8418491 C28.3904675,25.8418491 28.0860097,26.1463069 28.0860097,26.5218978 L28.0860097,38.5587591 C28.0860097,38.93435 28.3904675,39.2388078 28.7660584,39.2388078 C29.1416493,39.2388078 29.4461071,38.93435 29.4461071,38.5587591" id="Fill-17" fill="#75BFA1"></path>
                    <path d="M32.5743309,38.5587591 L32.5743309,30.2621655 C32.5743309,29.8865746 32.2698731,29.5821168 31.8942822,29.5821168 C31.5186914,29.5821168 31.2142336,29.8865746 31.2142336,30.2621655 L31.2142336,38.5587591 C31.2142336,38.93435 31.5186914,39.2388078 31.8942822,39.2388078 C32.2698731,39.2388078 32.5743309,38.93435 32.5743309,38.5587591" id="Fill-18" fill="#75BFA1"></path>
                    <path d="M35.7705596,38.4227494 L35.7705596,28.0860097 C35.7705596,27.7104189 35.4661018,27.4059611 35.0905109,27.4059611 C34.7149201,27.4059611 34.4104623,27.7104189 34.4104623,28.0860097 L34.4104623,38.4227494 C34.4104623,38.7983403 34.7149201,39.1027981 35.0905109,39.1027981 C35.4661018,39.1027981 35.7705596,38.7983403 35.7705596,38.4227494" id="Fill-19" fill="#75BFA1"></path>
                    <path d="M38.8987835,38.4227494 L38.8987835,25.3658151 C38.8987835,24.9902242 38.5943257,24.6857664 38.2187348,24.6857664 C37.8431439,24.6857664 37.5386861,24.9902242 37.5386861,25.3658151 L37.5386861,38.4227494 C37.5386861,38.7983403 37.8431439,39.1027981 38.2187348,39.1027981 C38.5943257,39.1027981 38.8987835,38.7983403 38.8987835,38.4227494" id="Fill-20" fill="#75BFA1"></path>
                    <path d="M42.0950122,38.4907543 L42.0950122,22.7136253 C42.0950122,22.3380344 41.7905544,22.0335766 41.4149635,22.0335766 C41.0393726,22.0335766 40.7349148,22.3380344 40.7349148,22.7136253 L40.7349148,38.4907543 C40.7349148,38.8662771 41.0393726,39.1708029 41.4149635,39.1708029 C41.7905544,39.1708029 42.0950122,38.8662771 42.0950122,38.4907543" id="Fill-21" fill="#75BFA1"></path>
                    <path d="M44.1137366,14.5182909 L32.0148549,24.372536 L29.3109814,20.7509369 C29.1946931,20.5952057 29.0144802,20.4955786 28.8208023,20.4799375 C28.6270564,20.4642964 28.4332426,20.5336613 28.2934926,20.668787 L21.96904,26.7809283 C21.6989247,27.041931 21.6915802,27.4724698 21.9525828,27.7425172 C22.2135855,28.0126325 22.6441243,28.019977 22.9141717,27.7589743 L28.6832285,22.1835274 L31.3493592,25.7546669 C31.4595951,25.9023055 31.6279752,26.0000965 31.8108403,26.0227421 C31.9937054,26.0453197 32.1808547,25.9914599 32.323733,25.8751035 L44.9726381,15.5728423 C45.2638349,15.3357094 45.30763,14.9072787 45.0704291,14.6160819 C44.8332961,14.324885 44.4049335,14.2810899 44.1137366,14.5182909" id="Fill-22" fill="#ECEFF0"></path>
                </g>
            </g>
        </g>
    </g>
</svg>