<svg xmlns="http://www.w3.org/2000/svg" viewBox="0 0 330.7 286.4" style="enable-background:new 0 0 330.7 286.4" xml:space="preserve">
    <g id="Layer_3_copy">
        <path style="fill:none;stroke:#75bea0;stroke-width:10;stroke-miterlimit:10" d="M44 53.3h250.5v193H44z"/>
        <path  class="st3" d="M153 118.8h22v13h-22zM114 118.8h22v13h-22zM153 147.8h22v13h-22zM114 147.8h22v13h-22zM153 176.8h22v13h-22zM114 176.8h22v13h-22zM75 147.8h22v13H75zM75 176.8h22v13H75zM75 205.8h22v7H75zM153 205.8h22v13h-22zM203 176.8h56v13h-56zM203 98.8h56v13h-56zM203 205.8h56v13h-56zM114 205.8h22v13h-22z"/>
        <path transform="rotate(-90 230.457 104.753)" class="st3" d="M202.5 98.3h56v13h-56z"/>
    </g>
</svg>
