<svg viewBox="0 0 1000 1000.0656" xmlns="http://www.w3.org/2000/svg"><path d="M335 404.066h65v41h-65zm120 41h65v-41h-65zm-240 88h66v-41h-66zm120 0h65v-41h-65zm120 0h65v-41h-65zm-239 90h65v-41h-66zm120 0h64v-41h-65zm120 0h64v-41h-65zm-241 78h66v-32h-66zm120 11h65v-41h-65zm120 0h65v-41h-65zm343-484a61 61 0 0 1 61 61v422a61 61 0 0 1-61 61H202a61 61 0 0 1-61-61v-422a61 61 0 0 1 61-61zm102 483v-422a103 103 0 0 0-102-102H202a103 103 0 0 0-102 102v422a103 103 0 0 0 102 102h596a103 103 0 0 0 102-102zm-144-372h-46v-47a20 20 0 1 0-41 0v47h-46a21 21 0 0 0-20 20 20 20 0 0 0 20 20h46v46a21 21 0 0 0 20 20 20 20 0 0 0 20-20v-45h47a20 20 0 1 0 0-41zm-154 347a20 20 0 0 0 20 20h134a20 20 0 1 0 0-41H623a21 21 0 0 0-20 20m0-78a20 20 0 0 0 20 20h133a20 20 0 1 0 0-41H623a21 21 0 0 0-20 20"/></svg>