<?xml version="1.0" encoding="UTF-8" standalone="no"?>
<svg width="41px" height="28px" viewBox="0 0 41 28" version="1.1" xmlns="http://www.w3.org/2000/svg" xmlns:xlink="http://www.w3.org/1999/xlink" xmlns:sketch="http://www.bohemiancoding.com/sketch/ns">
    <defs></defs>
    <g id="Page-1" stroke="none" stroke-width="1" fill="none" fill-rule="evenodd" sketch:type="MSPage">
        <path d="M40.4093879,27.8580052 C40.4207866,27.855783 40.4317435,27.8526719 40.4428772,27.8498275 C40.4526853,27.8473386 40.4625819,27.8452052 40.4723017,27.842183 C40.4832586,27.8388941 40.4938621,27.8347164 40.5046422,27.8308052 C40.5142737,27.8273386 40.5239052,27.8241386 40.5334483,27.8202275 C40.5436099,27.8159608 40.5534181,27.810983 40.5633147,27.8062719 C40.5729461,27.8016497 40.5827543,27.797383 40.5922091,27.7923164 C40.6017522,27.7871608 40.6108534,27.7812941 40.6201315,27.7756941 C40.6294095,27.7700941 40.6387759,27.7648497 40.6478772,27.7587164 C40.6579504,27.7519608 40.6674935,27.7444052 40.677125,27.7371164 C40.6847241,27.7313386 40.6925884,27.7260052 40.7000108,27.7198719 C40.7160043,27.7066275 40.7312909,27.6926719 40.7459591,27.6780941 C40.7468427,27.6772941 40.7477263,27.676583 40.7486099,27.6756941 C40.7496703,27.6746275 40.7505539,27.673383 40.7516142,27.6723164 C40.7659289,27.6578275 40.7795366,27.6427164 40.7924375,27.626983 C40.799153,27.6187164 40.8049849,27.6100941 40.8112586,27.6016497 C40.8178858,27.5926719 40.824778,27.5839608 40.8309634,27.5746275 C40.8375905,27.5646719 40.8432457,27.5544497 40.8492543,27.5443164 C40.8542909,27.535783 40.859681,27.5274275 40.8643642,27.5186275 C40.8698427,27.5084052 40.8744375,27.4977386 40.8793858,27.4872497 C40.8837155,27.4780052 40.888222,27.4690275 40.8921983,27.4596052 C40.8964397,27.4492941 40.8998858,27.4387164 40.903597,27.4282275 C40.9071315,27.418183 40.910931,27.4083164 40.9140237,27.3980052 C40.9172047,27.3874275 40.9195905,27.3766719 40.9222414,27.3659164 C40.9248039,27.3555164 40.9277198,27.3452941 40.9298405,27.3348052 C40.9323147,27.322183 40.9338168,27.3094719 40.9355841,27.2968497 C40.9368211,27.2879608 40.9229483,27.2792497 40.9238319,27.2702719 C40.9260409,27.2482275 40.9116379,27.2260052 40.9116379,27.2038719 L40.9116379,0.663605245 L40.9116379,0.663071911 C40.9116379,0.641027467 40.9260409,0.618983022 40.9238319,0.597027467 C40.9229483,0.588494134 40.9291336,0.580316356 40.9279849,0.5719608 C40.9261293,0.558716356 40.9284267,0.545471911 40.9258642,0.532316356 C40.9237435,0.521649689 40.9226832,0.511249689 40.9200323,0.5007608 C40.9173815,0.490183022 40.916056,0.479516356 40.912875,0.469027467 C40.9094289,0.457649689 40.9056293,0.446627467 40.9015647,0.435516356 C40.8982069,0.426183022 40.8954677,0.416849689 40.8917565,0.407694134 C40.8866315,0.395427467 40.8807996,0.383694134 40.875056,0.371783022 C40.8713448,0.364138578 40.8680754,0.356316356 40.8640991,0.3487608 C40.8562349,0.334094134 40.8474871,0.3199608 40.8385625,0.305916356 C40.8358233,0.3015608 40.8335259,0.296938578 40.8306099,0.292671911 C40.8181509,0.274005245 40.8048966,0.2559608 40.7906703,0.238716356 C40.7904935,0.238538578 40.7904052,0.238449689 40.7903168,0.2383608 C40.7766207,0.221738578 40.7620409,0.205827467 40.7468427,0.190627467 C40.7388901,0.182627467 40.7304073,0.175516356 40.7221897,0.1679608 C40.7145022,0.161116356 40.7071681,0.153916356 40.6992155,0.147338578 C40.6891422,0.139071911 40.6786272,0.131605245 40.6682004,0.124049689 C40.6612198,0.118983022 40.6545043,0.113649689 40.647347,0.108849689 C40.6367435,0.101738578 40.6257866,0.0954274669 40.6148297,0.088938578 C40.6071422,0.0844052447 40.5996315,0.0796052447 40.5916789,0.075338578 C40.5814289,0.0698274669 40.5709138,0.0651163558 40.5604871,0.0602274669 C40.5512974,0.0558719113 40.5421078,0.0512496891 40.532653,0.047338578 C40.5231983,0.0434274669 40.5134784,0.0402274669 40.5039353,0.0367608002 C40.4930668,0.0328496891 40.482375,0.0287608002 40.4713297,0.0253830225 C40.4622284,0.0226274669 40.4529504,0.0205830225 40.4437608,0.0182719113 C40.432097,0.0152496891 40.4204332,0.0120496891 40.4085043,0.00964968913 C40.3981659,0.00760524468 40.3877392,0.00644968913 40.3773125,0.00484968913 C40.366444,0.00324968913 40.3556638,0.00129413357 40.3446185,0.000138578016 C40.3267694,-0.00155031087 40.3087435,0.0127608002 40.290806,0.0124941336 C40.2870948,0.0124052447 40.2836487,0.0269830225 40.2799375,0.0269830225 L0.693200431,0.0269830225 C0.691786638,0.0269830225 0.690461207,0.012138578 0.689135776,0.012138578 C0.6688125,0.0123163558 0.648489224,0.00573857802 0.628342672,0.00769413357 C0.617827586,0.00876080024 0.607577586,0.00689413357 0.597239224,0.00840524468 C0.586282328,0.0100052447 0.575413793,0.00938302246 0.564545259,0.0116052447 C0.552704741,0.0139163558 0.541217672,0.016138578 0.529642241,0.0191608002 C0.520364224,0.0214719113 0.511086207,0.0230719113 0.501896552,0.0258274669 C0.490586207,0.0292941336 0.479717672,0.0332052447 0.468760776,0.0372052447 C0.459394397,0.0405830225 0.449939655,0.0436052447 0.440661638,0.0474274669 C0.430853448,0.0515163558 0.421310345,0.056138578 0.411767241,0.0606719113 C0.401693966,0.0654719113 0.391532328,0.0700052447 0.381724138,0.0752496891 C0.373329741,0.0796941336 0.365377155,0.0847608002 0.357247845,0.0896496891 C0.346732759,0.0957830225 0.33612931,0.101916356 0.325967672,0.1087608 C0.318456897,0.113738578 0.311387931,0.119338578 0.304142241,0.124671911 C0.293980603,0.132049689 0.283818966,0.139249689 0.274099138,0.147249689 C0.265704741,0.154183022 0.258017241,0.161649689 0.249976293,0.168849689 C0.242112069,0.176049689 0.233982759,0.182894134 0.226295259,0.190538578 C0.211096983,0.205738578 0.196517241,0.221738578 0.182821121,0.2383608 C0.182732759,0.238449689 0.182556034,0.238538578 0.182467672,0.238716356 C0.168329741,0.2559608 0.154987069,0.274005245 0.142528017,0.292671911 C0.139612069,0.296938578 0.137314655,0.3015608 0.134487069,0.305916356 C0.1255625,0.3199608 0.116814655,0.334094134 0.109038793,0.3487608 C0.104885776,0.356405245 0.101616379,0.364316356 0.0979051724,0.372049689 C0.0921616379,0.383783022 0.0862413793,0.395516356 0.0812047414,0.407694134 C0.0774051724,0.416938578 0.0744008621,0.4263608 0.0710431034,0.435694134 C0.0669784483,0.446805245 0.062737069,0.457738578 0.0592909483,0.469027467 C0.0561099138,0.479516356 0.0538125,0.490183022 0.0511616379,0.5007608 C0.0485107759,0.511249689 0.0455948276,0.521649689 0.0433857759,0.532316356 C0.0408232759,0.545471911 0.0392327586,0.558716356 0.0374655172,0.5719608 C0.0363168103,0.580316356 0.0193512931,0.588494134 0.0185560345,0.597027467 C0.0163469828,0.618983022 0,0.641027467 0,0.663071911 L0,0.663605245 L0,27.2038719 C0,27.2260052 0.0163469828,27.2482275 0.0185560345,27.2702719 C0.0194396552,27.2792497 0.0287176724,27.2879608 0.0299547414,27.2968497 C0.0317219828,27.3094719 0.0370237069,27.322183 0.0394978448,27.3348052 C0.0416185345,27.3452941 0.0463900862,27.3555164 0.0489525862,27.3659164 C0.0516034483,27.3766719 0.0549612069,27.3874275 0.0581422414,27.3980052 C0.0612349138,27.4082275 0.0655646552,27.4180941 0.0690991379,27.4280497 C0.0728103448,27.4386275 0.0765215517,27.4492052 0.080762931,27.4596052 C0.0846508621,27.4689386 0.0892456897,27.4779164 0.093487069,27.4870719 C0.0984353448,27.4976497 0.103206897,27.5083164 0.108773707,27.5186275 C0.113456897,27.5274275 0.118758621,27.535783 0.123883621,27.5443164 C0.129803879,27.5544497 0.135547414,27.5646719 0.142174569,27.5746275 C0.148359914,27.5839608 0.155252155,27.5926719 0.16187931,27.6016497 C0.168153017,27.6100941 0.173984914,27.6187164 0.180700431,27.626983 C0.193601293,27.6427164 0.207297414,27.6578275 0.221523707,27.6723164 C0.222584052,27.673383 0.223467672,27.6746275 0.224528017,27.6756941 C0.225411638,27.676583 0.226383621,27.6772941 0.227267241,27.678183 C0.241846983,27.6927608 0.257133621,27.7066275 0.273038793,27.7198719 C0.280637931,27.7260941 0.288678879,27.7315164 0.296454741,27.737383 C0.305997845,27.744583 0.315364224,27.7520497 0.325260776,27.7587164 C0.334538793,27.7649386 0.344081897,27.7702719 0.353536638,27.7760497 C0.362637931,27.7814719 0.371474138,27.7871608 0.380840517,27.7922275 C0.390648707,27.7974719 0.400633621,27.8019164 0.410618534,27.8066275 C0.42025,27.8112497 0.429704741,27.8160497 0.439601293,27.8201386 C0.449321121,27.8242275 0.459394397,27.8275164 0.469290948,27.8310719 C0.479717672,27.8348941 0.490056034,27.8388941 0.500747845,27.842183 C0.510732759,27.8452052 0.520894397,27.8474275 0.530967672,27.8500052 C0.541836207,27.8527608 0.552616379,27.855783 0.563661638,27.8580052 C0.575237069,27.8603164 0.586989224,27.8617386 0.598653017,27.8634275 C0.608372845,27.8647608 0.617915948,27.855783 0.627724138,27.8567608 C0.649461207,27.8588941 0.671286638,27.8492052 0.693200431,27.8492052 L40.2799375,27.8492052 C40.3017629,27.8492052 40.3235884,27.8588941 40.3453254,27.8567608 C40.3553987,27.855783 40.3651185,27.8593386 40.3750151,27.8579164 C40.3865022,27.8562275 40.3979892,27.8603164 40.4093879,27.8580052 L40.4093879,27.8580052 Z M1.32543103,2.08004969 L14.1196401,12.7242275 L1.32543103,25.5948052 L1.32543103,2.08004969 L1.32543103,2.08004969 Z M20.486569,16.2806719 L15.5982909,12.2063608 C15.5726659,12.1812052 15.5453621,12.170183 15.5169978,12.1500052 L2.53440086,1.36031636 L38.4388254,1.36031636 L20.486569,16.2806719 L20.486569,16.2806719 Z M15.176097,13.566983 L20.0641099,17.6390719 C20.1867565,17.7410275 20.3366185,17.7947164 20.486569,17.7947164 C20.636431,17.7947164 20.7862931,17.7451164 20.9089397,17.6431608 L25.7970409,13.5662719 L38.6800539,26.5158719 L2.29317241,26.5158719 L15.176097,13.566983 L15.176097,13.566983 Z M26.7919095,12.7242275 L39.5862069,2.08004969 L39.5862069,25.5948052 L26.7919095,12.7242275 L26.7919095,12.7242275 Z" id="Imported-Layers" fill="#ECF0F0" sketch:type="MSShapeGroup"></path>
    </g>
</svg>