<svg id="Layer_1" width="56px" height="56px" data-name="Layer 1" xmlns="http://www.w3.org/2000/svg" viewBox="0 0 56.69 56.69"><defs><style>.round-tag-hover-1{fill:#3d4c4d;}.round-tag-hover-2{fill:#fff;}.round-tag-hover-3{fill:#3d4d4e;}</style></defs><title>icon_01_hover</title><path class="round-tag-hover-1" d="M28.35,1A27.35,27.35,0,1,1,1,28.35,27.38,27.38,0,0,1,28.35,1m0-1A28.35,28.35,0,1,0,56.69,28.35,28.35,28.35,0,0,0,28.35,0h0Z" transform="translate(0 0)"/><path class="round-tag-hover-2" d="M26,43.65a1.56,1.56,0,0,1-.92-0.29l-8.33-6a1.57,1.57,0,0,1-.36-2.2L26.76,20.7A1.58,1.58,0,0,1,27,20.45c1.37-1.27,5.71-2.9,8.45-2.9a2.84,2.84,0,0,1,1.57.34c1.6,1.15,1.75,7.82.85,10.18a1.64,1.64,0,0,1-.21.44L27.28,43a1.58,1.58,0,0,1-1.28.66h0Z" transform="translate(0 0)"/><path class="round-tag-hover-3" d="M35.44,18a2.27,2.27,0,0,1,1.28.24c1.21,0.87,1.65,7.05.66,9.63a1.07,1.07,0,0,1-.14.29L26.87,42.7a1.08,1.08,0,0,1-.88.45,1.07,1.07,0,0,1-.62-0.2L17,37a1.08,1.08,0,0,1-.25-1.5L27.17,21a1.14,1.14,0,0,1,.17-0.18c1.27-1.18,5.51-2.76,8.1-2.76m0-1c-2.82,0-7.31,1.67-8.78,3a2.07,2.07,0,0,0-.3.34L16,34.9a2.07,2.07,0,0,0,.48,2.89l8.33,6a2.07,2.07,0,0,0,2.89-.48l10.37-14.5a2.05,2.05,0,0,0,.27-0.55c0.94-2.44.87-9.41-1-10.76A3.27,3.27,0,0,0,35.44,17h0Z" transform="translate(0 0)"/><path class="round-tag-hover-2" d="M25.09,37.39A1.57,1.57,0,0,1,24,36.93l-7.25-7.25a1.58,1.58,0,0,1,0-2.23l12.6-12.6a1.54,1.54,0,0,1,.27-0.21c1.31-.87,4.61-1.6,7.21-1.6a4.87,4.87,0,0,1,3.1.71c1.39,1.39.45,8-.83,10.18a1.6,1.6,0,0,1-.28.4L26.2,36.93A1.56,1.56,0,0,1,25.09,37.39Z" transform="translate(0 0)"/><path class="round-tag-hover-3" d="M36.82,13.54a4.47,4.47,0,0,1,2.74.56c1.05,1.05.47,7.23-.92,9.61a1.07,1.07,0,0,1-.18.26l-12.6,12.6a1.07,1.07,0,0,1-1.52,0l-7.25-7.25a1.08,1.08,0,0,1,0-1.52l12.6-12.6a1.14,1.14,0,0,1,.2-0.15,15.79,15.79,0,0,1,6.93-1.51m0-1c-2.71,0-6.11.77-7.48,1.68a2.07,2.07,0,0,0-.36.28l-12.6,12.6a2.07,2.07,0,0,0,0,2.93l7.25,7.25a2.07,2.07,0,0,0,2.93,0l12.6-12.6a2.05,2.05,0,0,0,.36-0.5c1.32-2.25,2.39-9.14.75-10.79a5.22,5.22,0,0,0-3.45-.85h0Z" transform="translate(0 0)"/><circle class="round-tag-hover-3" cx="36.55" cy="17.11" r="1.41" transform="translate(-1.4 30.86) rotate(-45)"/><path class="round-tag-hover-3" d="M24.41,32.34l0.16-2.56a2.34,2.34,0,0,0-.4-2,1,1,0,0,0-1.47,0,1.7,1.7,0,0,0-.36,1.65l-0.53.09a2.1,2.1,0,0,1,.55-2.14,1.52,1.52,0,0,1,2.22-.1h0c0.55,0.55.59,1.17,0.51,2.4L25,31.65l2-2,0.38,0.38-2.61,2.61Z" transform="translate(0 0)"/><path class="round-tag-hover-3" d="M26.15,27.53h0A2.47,2.47,0,0,1,25.79,24c1-1,2.45-.69,3.5.35h0c1,1,1.32,2.56.35,3.52S27.2,28.58,26.15,27.53Zm2.72-2.72h0c-0.82-.82-2-1.1-2.7-0.41s-0.42,1.85.4,2.68h0c0.82,0.82,2,1.1,2.7.4S29.69,25.63,28.87,24.81Z" transform="translate(0 0)"/><path class="round-tag-hover-3" d="M30,23.71h0a2.47,2.47,0,0,1-.35-3.52c1-1,2.45-.69,3.5.35h0c1,1,1.32,2.56.35,3.52S31,24.76,30,23.71ZM32.69,21h0c-0.82-.82-2-1.1-2.7-0.41s-0.42,1.85.4,2.68h0c0.82,0.82,2,1.1,2.7.4S33.51,21.81,32.69,21Z" transform="translate(0 0)"/></svg>