
<svg version="1.1" xmlns="http://www.w3.org/2000/svg" xmlns:xlink="http://www.w3.org/1999/xlink" x="0px" y="0px" width="56px" height="56px" viewBox="0 0 94 95" style="enable-background:new 0 0 94 95;" xml:space="preserve">
<style type="text/css">
	.round-icon-esg-hover-0{display:none;}
	.round-icon-esg-hover-1{display:inline;fill:#43504F;}
	.round-icon-esg-hover-2{display:inline;}
	.round-icon-esg-hover-3{fill:#75BFA1;stroke:#FFFFFF;stroke-width:1.4;stroke-miterlimit:10;}
	.round-icon-esg-hover-4{fill:none;stroke:#FFFFFF;stroke-width:1.4;stroke-miterlimit:10;}
	.round-icon-esg-hover-5{fill:none;stroke:#43504F;stroke-miterlimit:10;}
	.round-icon-esg-hover-6{fill:none;stroke:#43504F;stroke-width:1.4;stroke-miterlimit:10;}
</style>
<g id="Layer_2" class="round-icon-esg-hover-0">
	<circle class="round-icon-esg-hover-1" cx="47.1" cy="47.5" r="47"/>
	<g class="round-icon-esg-hover-2">
		<g>
			<path class="round-icon-esg-hover-3" d="M62.1,25.6c-4.2,4.2-12,3.3-12,3.3s-0.9-7.8,3.3-12s12-3.3,12-3.3S66.3,21.4,62.1,25.6z"/>
			<path class="round-icon-esg-hover-3" d="M46.5,24c4.3,4.3,3.4,12.3,3.4,12.3s-8,0.9-12.3-3.4c-4.3-4.3-3.4-12.3-3.4-12.3S42.1,19.7,46.5,24z"/>
			<path class="round-icon-esg-hover-4" d="M49.9,28.9v14.6V28.9z"/>
			<path class="round-icon-esg-hover-4" d="M50.1,28.9l7.4-7.4L50.1,28.9z"/>
			<path class="round-icon-esg-hover-4" d="M49.8,36.3l-9.7-9.7L49.8,36.3z"/>
			<path class="round-icon-esg-hover-4" d="M49.3,43.1c-5.3,0-9.9,3.2-11.8,7.7C39.4,46.2,43.9,43.1,49.3,43.1s9.9,3.2,11.8,7.7"/>
		</g>
		<g>
			<path class="round-icon-esg-hover-4" d="M19.5,65.7l1.9-1.9L19.5,65.7z"/>
			<polygon class="round-icon-esg-hover-4" points="15.6,61.9 20.4,57.1 35.5,72.2 30.7,76.9 35.5,72.2 20.4,57.1 			"/>
			<path class="round-icon-esg-hover-4" d="M42.5,60.7h8.8c1.8,0,3.2-1.4,3.4-3.1l0,0c0.1-1.9-1.3-3.5-3.3-3.6l-7.5-0.2c-0.7,0-1.3-0.5-1.7-0.8v0
				c-3.2-3.2-10.3-3.5-14.4,0.6L22.3,59l5.5-5.5c4.1-4.1,11.2-3.8,14.4-0.6v0c0.3,0.3,1,0.8,1.7,0.8l7.5,0.2
				c1.9,0.1,3.4,1.7,3.3,3.6l0,0c-0.1,1.8-1.6,3.1-3.4,3.1H42.5z"/>
			<path class="round-icon-esg-hover-4" d="M31.3,68.1l1.7-1.7h17.6c1.4,0,2.7-0.5,3.7-1.4l4.6-3.9c2.1-1.8,3.6-3.4,5.6-5.2l4.6-4.2
				c0.8-0.7,0.7-2-0.2-2.6l0,0c-2.9-2-4.1-0.6-7.5,1.6c-3.6,2.3-8.3,4.3-8.3,4.3s4.7-2,8.3-4.3c3.4-2.2,4.6-3.6,7.5-1.6l0,0
				c0.9,0.6,1,1.9,0.2,2.6l-4.6,4.2c-2,1.8-3.5,3.5-5.6,5.2L54.3,65c-1,0.9-2.4,1.4-3.7,1.4H33L31.3,68.1z"/>
		</g>
	</g>
</g>
<g id="Layer_2_copy">
	<circle class="round-icon-esg-hover-5" cx="47.1" cy="47.5" r="47"/>
	<g>
		<g>
			<path class="round-icon-esg-hover-6" d="M62.1,25.6c-4.2,4.2-12,3.3-12,3.3s-0.9-7.8,3.3-12s12-3.3,12-3.3S66.3,21.4,62.1,25.6z"/>
			<path class="round-icon-esg-hover-6" d="M46.5,24c4.3,4.3,3.4,12.3,3.4,12.3s-8,0.9-12.3-3.4c-4.3-4.3-3.4-12.3-3.4-12.3S42.1,19.7,46.5,24z"/>
			<path class="round-icon-esg-hover-6" d="M49.9,28.9v14.6V28.9z"/>
			<path class="round-icon-esg-hover-6" d="M50.1,28.9l7.4-7.4L50.1,28.9z"/>
			<path class="round-icon-esg-hover-6" d="M49.8,36.3l-9.7-9.7L49.8,36.3z"/>
			<path class="round-icon-esg-hover-6" d="M49.3,43.1c-5.3,0-9.9,3.2-11.8,7.7C39.4,46.2,43.9,43.1,49.3,43.1s9.9,3.2,11.8,7.7"/>
		</g>
		<g>
			<path class="round-icon-esg-hover-6" d="M19.5,65.7l1.9-1.9L19.5,65.7z"/>
			<polygon class="round-icon-esg-hover-6" points="15.6,61.9 20.4,57.1 35.5,72.2 30.7,76.9 35.5,72.2 20.4,57.1 			"/>
			<path class="round-icon-esg-hover-6" d="M42.5,60.7h8.8c1.8,0,3.2-1.4,3.4-3.1l0,0c0.1-1.9-1.3-3.5-3.3-3.6l-7.5-0.2c-0.7,0-1.3-0.5-1.7-0.8v0
				c-3.2-3.2-10.3-3.5-14.4,0.6L22.3,59l5.5-5.5c4.1-4.1,11.2-3.8,14.4-0.6v0c0.3,0.3,1,0.8,1.7,0.8l7.5,0.2
				c1.9,0.1,3.4,1.7,3.3,3.6l0,0c-0.1,1.8-1.6,3.1-3.4,3.1H42.5z"/>
			<path class="round-icon-esg-hover-6" d="M31.3,68.1l1.7-1.7h17.6c1.4,0,2.7-0.5,3.7-1.4l4.6-3.9c2.1-1.8,3.6-3.4,5.6-5.2l4.6-4.2
				c0.8-0.7,0.7-2-0.2-2.6l0,0c-2.9-2-4.1-0.6-7.5,1.6c-3.6,2.3-8.3,4.3-8.3,4.3s4.7-2,8.3-4.3c3.4-2.2,4.6-3.6,7.5-1.6l0,0
				c0.9,0.6,1,1.9,0.2,2.6l-4.6,4.2c-2,1.8-3.5,3.5-5.6,5.2L54.3,65c-1,0.9-2.4,1.4-3.7,1.4H33L31.3,68.1z"/>
		</g>
	</g>
</g>
</svg>
