
<svg width="56px" height="56px" viewBox="0 0 94 95" version="1.1" xmlns="http://www.w3.org/2000/svg" xmlns:xlink="http://www.w3.org/1999/xlink" xmlns:sketch="http://www.bohemiancoding.com/sketch/ns">
    <g id="Page-1" stroke="none" stroke-width="1" fill="none" fill-rule="evenodd" sketch:type="MSPage">
        <g id="Styleguide_Extras" sketch:type="MSArtboardGroup" transform="translate(-620.000000, -562.000000)">
            <g id="University_Icons" sketch:type="MSLayerGroup" transform="translate(108.000000, 545.000000)">
                <g id="Off" sketch:type="MSShapeGroup">
                    <g id="Nyttige-3" transform="translate(458.000000, 0.000000)">
                        <g id="Imported-Layers" transform="translate(53.504860, 16.995655)">
                            <path d="M0.507501967,47.5 C0.507501967,21.3054258 21.5467126,0.0706143552 47.5,0.0706143552 C73.4531729,0.0706143552 94.492498,21.3054258 94.492498,47.5 C94.492498,73.6944586 73.4531729,94.9293856 47.5,94.9293856 C21.5467126,94.9293856 0.507501967,73.6944586 0.507501967,47.5" id="Fill-1" fill="#424F50"></path>
                            <path d="M66.6726226,62.0973745 L66.6726226,21.7179828 L28.4304218,21.7179828 L28.4304218,72.3745838 L56.294262,72.3745838 L66.6726226,62.0973745" id="Fill-2" fill="#ECF0F0"></path>
                            <path d="M55.9940241,72.8281485 L55.9940241,61.9048363 L67.0248468,61.9048363" id="Fill-3" fill="#C2D0C7"></path>
                            <path d="M56.4520529,72.8281485 L55.5359952,72.8281485 L55.5359952,61.4512716 L67.0248468,61.4512716 L67.0248468,62.358401 L56.4520529,62.358401 L56.4520529,72.8281485" id="Fill-4" fill="#424F50"></path>
                            <path d="M33.2346862,39.313572 L32.3293922,39.175575 L33.5594286,31.2581494 C33.5930937,31.0416857 33.7782519,30.8797631 33.9994798,30.8737533 C34.2196772,30.8683106 34.4145684,31.0191208 34.4602568,31.2335435 L35.4954019,36.093376 L36.2938607,33.721346 C36.3481371,33.5603305 36.488523,33.4427438 36.6578791,33.4166639 C36.8265482,33.3903571 36.9970495,33.4600927 37.0981593,33.5971826 L37.5685549,34.2345544 L39.0920733,30.166646 C39.158602,29.9885084 39.3300193,29.8821475 39.5215898,29.8821475 L39.5227349,29.8821475 C39.714878,29.8821475 39.8862953,29.9899825 39.9520224,30.1688004 L41.6201634,34.7003654 L42.8010762,31.0332947 C42.8648568,30.8353137 43.0569998,30.7034398 43.265632,30.7170467 C43.4750657,30.7298599 43.6488876,30.8811238 43.687591,31.0852279 L44.4473464,35.0928122 L45.8108982,27.7831634 L46.7117264,27.9479208 L44.9014819,37.6637304 C44.8612899,37.8784933 44.672353,38.0463122 44.4516976,38.0463122 L44.4510106,38.0463122 C44.2305842,38.0463122 44.0415328,37.8795138 44.0008828,37.6648643 L43.1220399,33.0236501 L42.0849482,36.2386301 C42.0254044,36.4234577 41.8537581,36.5488683 41.6578363,36.552837 C41.4659222,36.5532906 41.2853443,36.4361575 41.2182431,36.2537111 L39.5182691,31.6291654 L38.1318159,35.3418193 C38.0731882,35.4986393 37.9325733,35.6106697 37.7653928,35.6336882 C37.5986703,35.6565932 37.4318333,35.586971 37.3323266,35.4520355 L36.8823132,34.8421044 L35.83045,37.9669384 C35.7650664,38.1611775 35.5767021,38.2881756 35.3699021,38.2763829 C35.1634456,38.2647036 34.9904252,38.1175219 34.947714,37.9171597 L34.082612,33.8558279 L33.2346862,39.313572" id="Fill-5" fill="#75BFA1"></path>
                            <path d="M31.8330035,66.3941064 L45.6883755,66.3941064 L45.6883755,67.3012358 L31.8330035,67.3012358 L31.8330035,66.3941064 Z" id="Fill-6" fill="#424F50"></path>
                            <path d="M49.0090844,43.4890887 L62.7499492,43.4890887 L62.7499492,44.3962181 L49.0090844,44.3962181 L49.0090844,43.4890887 Z" id="Fill-7" fill="#424F50"></path>
                            <path d="M49.0090844,46.0970858 L62.7499492,46.0970858 L62.7499492,47.0042152 L49.0090844,47.0042152 L49.0090844,46.0970858 Z" id="Fill-8" fill="#424F50"></path>
                            <path d="M31.8330035,43.4890887 L45.6883755,43.4890887 L45.6883755,44.3962181 L31.8330035,44.3962181 L31.8330035,43.4890887 Z" id="Fill-9" fill="#424F50"></path>
                            <path d="M31.8330035,46.0970858 L45.6883755,46.0970858 L45.6883755,47.0042152 L31.8330035,47.0042152 L31.8330035,46.0970858 Z" id="Fill-10" fill="#424F50"></path>
                            <path d="M49.0090844,48.5916916 L62.7499492,48.5916916 L62.7499492,49.4988211 L49.0090844,49.4988211 L49.0090844,48.5916916 Z" id="Fill-11" fill="#424F50"></path>
                            <path d="M49.0090844,51.1996887 L62.7499492,51.1996887 L62.7499492,52.1068181 L49.0090844,52.1068181 L49.0090844,51.1996887 Z" id="Fill-12" fill="#424F50"></path>
                            <path d="M49.0090844,33.397274 L62.7499492,33.397274 L62.7499492,34.3044034 L49.0090844,34.3044034 L49.0090844,33.397274 Z" id="Fill-13" fill="#424F50"></path>
                            <path d="M49.0090844,30.7892769 L62.7499492,30.7892769 L62.7499492,31.6964063 L49.0090844,31.6964063 L49.0090844,30.7892769 Z" id="Fill-14" fill="#424F50"></path>
                            <path d="M49.0090844,28.294671 L62.7499492,28.294671 L62.7499492,29.2018004 L49.0090844,29.2018004 L49.0090844,28.294671 Z" id="Fill-15" fill="#424F50"></path>
                            <path d="M49.0090844,35.8918799 L62.7499492,35.8918799 L62.7499492,36.7990093 L49.0090844,36.7990093 L49.0090844,35.8918799 Z" id="Fill-16" fill="#424F50"></path>
                            <path d="M49.0090844,38.4998769 L62.7499492,38.4998769 L62.7499492,39.4070063 L49.0090844,39.4070063 L49.0090844,38.4998769 Z" id="Fill-17" fill="#424F50"></path>
                            <path d="M49.0090844,40.9944828 L62.7499492,40.9944828 L62.7499492,41.9016122 L49.0090844,41.9016122 L49.0090844,40.9944828 Z" id="Fill-18" fill="#424F50"></path>
                            <path d="M38.8812655,56.2802938 L38.792637,56.2085172 L42.8385201,51.3046889 L42.9271487,51.3764656 L38.8812655,56.2802938" id="Fill-19" fill="#FFFFFF"></path>
                            <path d="M45.2321787,56.2443488 C45.2321787,59.7418996 42.368926,62.577246 38.8369513,62.577246 C35.3049765,62.577246 32.4417238,59.7418996 32.4417238,56.2443488 C32.4417238,52.7467979 35.3049765,49.9114516 38.8369513,49.9114516 C42.368926,49.9114516 45.2321787,52.7467979 45.2321787,56.2443488" id="Fill-20" fill="#75BFA1"></path>
                            <path id="Fill-21" fill="#424F50"></path>
                            <path d="M38.8369513,56.2443488 L42.8758494,51.3349644 C41.7746336,50.4454106 40.3689432,49.9114516 38.8369513,49.9114516 C36.7256674,49.9114516 34.8539326,50.9250553 33.6893943,52.4871321 L33.6913409,52.4897401 L38.8369513,56.2443488" id="Fill-22" fill="#C2D0C7"></path>
                            <path d="M33.7022191,52.4692163 C33.1799517,53.1646444 32.7997878,53.9702887 32.6005453,54.8439677 L38.8369513,56.2443488 L33.7022191,52.4692163" id="Fill-23" fill="#778A83"></path>
                            <path d="M32.6005453,54.8439677 C32.4977178,55.2946977 32.4417238,55.7628898 32.4417238,56.2443488 C32.4417238,58.1243745 33.2697254,59.8122021 34.5834666,60.9719671 L38.8369513,56.2443488 L32.6005453,54.8439677" id="Fill-24" fill="#424F50"></path>
                        </g>
                    </g>
                </g>
            </g>
        </g>
    </g>
</svg>