<svg xmlns="http://www.w3.org/2000/svg" viewBox="0 0 330.7 286.4" style="enable-background:new 0 0 330.7 286.4" xml:space="preserve"><style>.st0{display:none}.st1{fill:#75bea0}.st1,.st2{display:inline}.st3{fill:#75bea0}.st5{fill:#fff}</style><g id="Layer_6"><path class="st5" d="M94.4 246.8v-23.9H74.2V94.6h99.3V126h6.3V90.8c0-5.5-4.5-10.1-10.1-10.1H78c-5.5 0-10.1 4.5-10.1 10.1v145.9c0 5.5 4.5 10.1 10.1 10.1"/><path class="st5" d="M269.2 236.7v-91.8c0-5.5-4.5-10.1-10.1-10.1H113.2c-5.5 0-10.1 4.5-10.1 10.1v91.8c0 5.5 4.5 10.1 10.1 10.1h145.9c5.5 0 10.1-4.6 10.1-10.1zm-158.5-45.9c0-2.4 2-4.4 4.4-4.4 2.4 0 4.4 2 4.4 4.4 0 2.4-2 4.4-4.4 4.4-2.4 0-4.4-2-4.4-4.4zm16.4 49.7v-99.3h128.3v99.3H127.1z"/><path d="M212 114.4c3.5-10.6 9.4-30.6-6.3-48.5-17.3-19.8-48.9-19.2-68.7-.3" style="fill:none;stroke:#fff;stroke-width:5.8303;stroke-miterlimit:10"/><path transform="rotate(-30.27 220.33 112.249)" class="st5" d="M206.5 109.3h27.7v5.8h-27.7z"/><path transform="scale(-1) rotate(59.73 188.64 -357.675)" class="st5" d="M191.5 105.4h27.7v5.8h-27.7z"/></g></svg>