<?xml version="1.0" encoding="UTF-8" standalone="no"?>
<svg width="22px" height="25px" viewBox="0 0 22 25" version="1.1" xmlns="http://www.w3.org/2000/svg" xmlns:xlink="http://www.w3.org/1999/xlink" xmlns:sketch="http://www.bohemiancoding.com/sketch/ns">
    <defs></defs>
    <g id="Page-1" stroke="none" stroke-width="1" fill="none" fill-rule="evenodd" sketch:type="MSPage">
        <g id="Styleguide_Elements" sketch:type="MSArtboardGroup" transform="translate(-1187.000000, -383.000000)" fill="#435050">
            <g id="Group" sketch:type="MSLayerGroup" transform="translate(1187.000000, 383.000000)">
                <path d="M20.9229702,4.12937837 L1.01871549,4.12937837 C0.732177055,4.12937837 0.5,3.89709757 0.5,3.61066288 C0.5,3.32422818 0.732177055,3.09194738 1.01871549,3.09194738 L20.9229702,3.09194738 C21.2095086,3.09194738 21.4416857,3.32422818 21.4416857,3.61066288 C21.4416857,3.89709757 21.2095086,4.12937837 20.9229702,4.12937837" id="Fill-1" sketch:type="MSShapeGroup"></path>
                <path d="M15.8985881,25 L5.84982412,25 C4.99518847,25 4.35218874,24.7620133 3.93897998,24.2926796 C3.48157666,23.7731341 3.48002051,23.1611536 3.49381834,22.9613444 L2.2723471,3.6434457 C2.2542958,3.35752972 2.47143011,3.11103611 2.75724234,3.09298481 C3.04212089,3.07648966 3.28965192,3.29196408 3.30770322,3.5779838 L4.5316643,22.9347861 C4.53363542,22.9676727 4.53270173,23.0005593 4.52855201,23.0331346 C4.52855201,23.0331346 4.50033389,23.3677061 4.72462647,23.6149259 C4.93097149,23.8423308 5.32011185,23.962569 5.84982412,23.962569 L15.8985881,23.962569 C16.4284041,23.962569 16.8175445,23.8423308 17.0237858,23.6149259 C17.249427,23.3663574 17.2194453,23.0293998 17.219134,23.0260801 C17.2149843,22.993401 17.2147768,22.9676727 17.216748,22.9347861 L18.4406053,3.5779838 C18.4587603,3.29196408 18.7073288,3.07524474 18.9910662,3.09298481 C19.2769822,3.11103611 19.4941165,3.35752972 19.4760652,3.6434457 L18.2545939,22.9612406 C18.2683917,23.1611536 18.2669393,23.7731341 17.8094323,24.2926796 C17.3962235,24.7620133 16.7533275,25 15.8985881,25" id="Fill-2" sketch:type="MSShapeGroup"></path>
                <path d="M7.10542684,22.094467 C6.8294702,22.094467 6.60009421,21.8771252 6.58764503,21.5987825 L5.91134377,6.31358557 C5.89868711,6.02735836 6.12038612,5.78511823 6.40661333,5.77246157 C6.69439668,5.75804128 6.93497693,5.98160765 6.94773733,6.26773112 L7.62403859,21.5528243 C7.63679899,21.8390515 7.41499625,22.0813954 7.12876904,22.0940521 C7.1209883,22.0943633 7.11320757,22.094467 7.10542684,22.094467" id="Fill-3" sketch:type="MSShapeGroup"></path>
                <path d="M14.9327399,22.094467 C14.9261003,22.094467 14.9194608,22.094467 14.9127175,22.0941558 C14.6264903,22.0832628 14.4032351,21.8423713 14.4141281,21.5561441 L14.9938446,6.2710509 C15.0045301,5.98482369 15.243243,5.76094608 15.5317525,5.77235782 C15.8180835,5.78314711 16.0412349,6.02403858 16.0304456,6.31036953 L15.4507292,21.5954627 C15.4401474,21.8750504 15.2101489,22.094467 14.9327399,22.094467" id="Fill-4" sketch:type="MSShapeGroup"></path>
                <path d="M10.970791,22.2555801 C10.6843563,22.2555801 10.4520755,22.0232993 10.4520755,21.7368646 L10.4520755,6.29065835 C10.4520755,6.00422365 10.6843563,5.77194285 10.970791,5.77194285 C11.2573294,5.77194285 11.4895064,6.00422365 11.4895064,6.29065835 L11.4895064,21.7368646 C11.4895064,22.0232993 11.2573294,22.2555801 10.970791,22.2555801" id="Fill-5" sketch:type="MSShapeGroup"></path>
                <path d="M14.0627503,4.12937837 L7.94335985,4.12937837 C7.65682141,4.12937837 7.42464435,3.89709757 7.42464435,3.61066288 L7.42464435,2.74108822 C7.42464435,1.56702757 8.37970332,0.611968607 9.55366023,0.611968607 L12.4523461,0.611968607 C13.6264068,0.611968607 14.5814658,1.56702757 14.5814658,2.74108822 L14.5814658,3.61066288 C14.5814658,3.89709757 14.3492887,4.12937837 14.0627503,4.12937837 L14.0627503,4.12937837 Z M8.46207534,3.09194738 L13.5440348,3.09194738 L13.5440348,2.74108822 C13.5440348,2.13917076 13.0542636,1.64939959 12.4523461,1.64939959 L9.55366023,1.64939959 C8.95174277,1.64939959 8.46207534,2.13917076 8.46207534,2.74108822 L8.46207534,3.09194738 L8.46207534,3.09194738 Z" id="Fill-6" sketch:type="MSShapeGroup"></path>
            </g>
        </g>
    </g>
</svg>