
<svg width="56px" height="56px" viewBox="0 0 58 58" version="1.1" xmlns="http://www.w3.org/2000/svg" xmlns:xlink="http://www.w3.org/1999/xlink" xmlns:sketch="http://www.bohemiancoding.com/sketch/ns">
    <g id="Page-1" stroke="none" stroke-width="1" fill="none" fill-rule="evenodd" sketch:type="MSPage">
        <g id="Styleguide_Elements" sketch:type="MSArtboardGroup" transform="translate(-1362.000000, -5493.000000)" stroke="#435050">
            <g id="Products_Icons" sketch:type="MSLayerGroup" transform="translate(883.000000, 5150.000000)">
                <g id="On" transform="translate(0.000000, 332.000000)" sketch:type="MSShapeGroup">
                    <g id="Imported-Layers" transform="translate(480.000000, 12.000000)">
                        <path d="M0.0646726277,27.9390512 C0.0646726277,12.5256123 12.5596827,0.0306021898 27.9731217,0.0306021898 C43.3865606,0.0306021898 55.8815707,12.5256123 55.8815707,27.9390512 C55.8815707,43.3524221 43.3865606,55.8474322 27.9731217,55.8474322 C12.5596827,55.8474322 0.0646726277,43.3524221 0.0646726277,27.9390512" id="Fill-1"></path>
                        <path d="M35.8219713,24.6013724 C35.8219713,22.9579668 37.1541866,21.6257515 38.7975922,21.6257515 C40.4409978,21.6257515 41.7732131,22.9579668 41.7732131,24.6013724 L41.7732811,36.4498602 C41.7732131,38.0932658 40.4409978,39.4255491 38.7975922,39.4255491 C37.1541866,39.4255491 35.8219713,38.0932658 35.8219713,36.4498602 L35.8219713,29.9525888 C33.4511518,31.2599757 30.14134,31.3101181 30.1411848,31.3101204 C29.1849684,31.3101204 28.4099169,30.535001 28.4099169,29.5788526 C28.4099169,28.6227041 29.1849684,27.8475847 30.1411848,27.8475847 L35.8219713,25.9339207 L35.8219713,24.6013724 Z M20.0780967,24.6013724 C20.0780967,22.9579668 18.7458134,21.6257515 17.1024078,21.6257515 C15.4590022,21.6257515 14.1267869,22.9579668 14.1267869,24.6013724 L14.1267869,36.4498602 C14.1267869,38.0932658 15.4590022,39.4255491 17.1024078,39.4255491 C18.7458134,39.4255491 20.0780967,38.0932658 20.0780967,36.4498602 L20.0780967,29.9525888 C22.4489162,31.2599757 25.758728,31.3101181 25.7588832,31.3101204 C26.7150316,31.3101204 27.4901511,30.535001 27.4901511,29.5788526 C27.4901511,28.6227041 26.7150316,27.8475847 25.7588832,27.8475847 C22.4371722,27.5972372 20.6994954,26.4139615 20.0780967,25.8854157 L20.0780967,24.6013724 L20.0780967,24.6013724 Z M14.1267869,17.7303647 C14.1267869,16.0869591 15.4590022,14.7546758 17.1024078,14.7546758 C18.7458134,14.7546758 20.0780967,16.0869591 20.0780967,17.7303647 C20.0780967,19.3737703 18.7458134,20.7059856 17.1024078,20.7059856 C15.4590022,20.7059856 14.1267869,19.3737703 14.1267869,17.7303647 Z M41.7732131,17.7303647 C41.7732131,16.0869591 40.4409978,14.7546758 38.7975922,14.7546758 C37.1541866,14.7546758 35.8219713,16.0869591 35.8219713,17.7303647 C35.8219713,19.3737703 37.1541866,20.7059856 38.7975922,20.7059856 C40.4409978,20.7059856 41.7732131,19.3737703 41.7732131,17.7303647 Z" id="Fill-2"></path>
                    </g>
                </g>
            </g>
        </g>
    </g>
</svg>