<?xml version="1.0" encoding="UTF-8" standalone="no"?>
<svg width="35px" height="35px" viewBox="0 0 35 35" version="1.1" xmlns="http://www.w3.org/2000/svg" xmlns:xlink="http://www.w3.org/1999/xlink" xmlns:sketch="http://www.bohemiancoding.com/sketch/ns">

    <g id="Page-1" stroke="none" stroke-width="1" fill="none" fill-rule="evenodd" sketch:type="MSPage">
        <g id="Imported-Layers" sketch:type="MSLayerGroup" fill="#ECF0F0">
            <g id="Fill-1-+-Fill-2" sketch:type="MSShapeGroup">
                <path d="M32.9179245,13.4324324 L31.0191509,13.4324324 C30.7431132,12.4864865 30.3767925,11.6395811 29.925566,10.8010946 L31.2723585,9.45198649 C32.0714151,8.65067568 32.0714151,7.34924324 31.2724528,6.54802703 L28.4291509,3.70962162 C28.0424528,3.32168919 27.5282075,3.12162162 26.9812264,3.12162162 L26.9804717,3.12162162 C26.4334906,3.12162162 25.9193396,3.32263514 25.5342453,3.70895946 L24.1613208,5.05494595 C23.325,4.60212162 22.4528302,4.22837838 21.509434,3.95159459 L21.509434,2.04778378 C21.509434,0.915391892 20.6333962,0 19.5132075,0 L15.4916981,0 C14.3715094,0 13.490566,0.915391892 13.490566,2.04778378 L13.490566,3.95301351 C12.6415094,4.2175 11.7861321,4.57544595 10.9212264,5.05352703 L9.47603774,3.68975676 C9.09009434,3.30664865 8.57481132,3.0957973 8.03066038,3.0957973 C7.48301887,3.0957973 6.96632075,3.30948649 6.5795283,3.69732432 L3.73386792,6.54868919 C3.34716981,6.93643243 3.13358491,7.45197297 3.13339623,8.00052703 C3.13320755,8.54917568 3.34584906,9.065 3.73150943,9.45160811 L5.07971698,10.800527 C4.62792453,11.6395811 4.26141509,12.5810811 3.98566038,13.4324324 L2.08669811,13.4324324 C0.95745283,13.4324324 0,14.3652297 0,15.4885405 L0,19.5210135 C0,20.6443243 0.95745283,21.5675676 2.08669811,21.5675676 L3.98566038,21.5675676 C4.26132075,22.5135135 4.62754717,23.3647703 5.07924528,24.2038243 L3.73169811,25.5552973 C3.34509434,25.9432297 3.13207547,26.4581081 3.13207547,27.0072297 C3.13207547,27.5565405 3.34518868,28.0719865 3.73179245,28.4595405 L6.57528302,31.2937838 C6.96207547,31.6819054 7.47632075,31.8783784 8.02330189,31.8783784 L8.02443396,31.8783784 C8.57122642,31.8783784 9.08537736,31.6822838 9.47075472,31.2956757 L10.8409434,29.9523378 C11.6773585,30.4052568 12.5471698,30.7814595 13.490566,31.0583378 L13.490566,32.9621486 C13.490566,34.0945405 14.3712264,35 15.4914151,35 L19.5130189,35 C20.6332075,35 21.509434,34.0945405 21.509434,32.9621486 L21.509434,31.0583378 C22.4528302,30.7814595 23.325,30.4141486 24.1609434,29.9617973 L25.519717,31.3125135 C25.9066038,31.7004459 26.4257547,31.9140405 26.9734906,31.9140405 C27.5213208,31.9140405 28.0381132,31.7003514 28.4246226,31.3125135 L31.27,28.4610541 C31.6568868,28.0735 31.8706604,27.5579595 31.8709434,27.0094054 C31.8712264,26.4606622 31.6585849,25.9448378 31.2731132,25.5585135 L29.9246226,24.2042027 C30.3763208,23.3656216 30.7429245,22.5135135 31.0190566,21.5675676 L32.9179245,21.5675676 C34.0470755,21.5675676 35,20.6444189 35,19.5212027 L35,15.4886351 C35,14.3653243 34.0470755,13.4324324 32.9179245,13.4324324 L32.9179245,13.4324324 Z M33.5849057,19.5212027 C33.5849057,19.8677973 33.2727358,20.1486486 32.9179245,20.1486486 L30.4830189,20.1486486 C30.1608491,20.1486486 29.8793396,20.3621486 29.7982075,20.6747838 C29.4973585,21.8344189 29.0390566,22.9380541 28.4360377,23.9595811 C28.2716981,24.2378784 28.3158491,24.5910946 28.5433019,24.8202027 L30.2716038,26.5612162 C30.3908491,26.6807838 30.4564151,26.8396081 30.4564151,27.009027 C30.4563208,27.1785405 30.3904717,27.3377432 30.2707547,27.4576892 L27.4259434,30.3094324 C27.3066038,30.4291892 27.1474528,30.4951216 26.9779245,30.4951216 C26.8081132,30.4951216 26.6487736,30.4290946 26.5285849,30.3085811 L24.7977358,28.577027 C24.5693396,28.3483919 24.215283,28.3039324 23.9377358,28.4686216 C22.9193396,29.0727973 21.7986792,29.5322432 20.6412264,29.8341892 C20.329434,29.9155405 20.0943396,30.1977162 20.0943396,30.5207568 L20.0943396,32.9621486 C20.0943396,33.3180135 19.8586792,33.5810811 19.5130189,33.5810811 L15.4914151,33.5810811 C15.1457547,33.5810811 14.9056604,33.3180135 14.9056604,32.9621486 L14.9056604,30.5207568 C14.9056604,30.1977162 14.6727358,29.9155405 14.3609434,29.8341892 C13.2046226,29.532527 12.0938679,29.0729865 11.0746226,28.4682432 C10.9626415,28.4017432 10.8342453,28.3692973 10.7107547,28.3692973 C10.5282075,28.3692973 10.3456604,28.4399595 10.2093396,28.5759865 L8.47226415,30.2912703 C8.35283019,30.411027 8.19330189,30.4594595 8.02443396,30.4594595 L8.02415094,30.4594595 C7.855,30.4594595 7.69603774,30.4106486 7.57622642,30.2904189 L4.73235849,27.4468108 C4.61292453,27.3271486 4.54716981,27.1718243 4.54716981,27.0016486 C4.54716981,26.831473 4.61301887,26.6737838 4.73301887,26.5534595 L6.46028302,24.8190676 C6.68830189,24.5899595 6.73283019,24.2357027 6.56849057,23.9572162 C5.965,22.9345541 5.50688679,21.833473 5.20669811,20.6747838 C5.12575472,20.3620541 4.84415094,20.1486486 4.52188679,20.1486486 L2.08669811,20.1486486 C1.73179245,20.1486486 1.41509434,19.8676081 1.41509434,19.5210135 L1.41509434,15.4885405 C1.41509434,15.1419459 1.73179245,14.8513514 2.08669811,14.8513514 L4.52188679,14.8513514 C4.84415094,14.8513514 5.12575472,14.6424865 5.20669811,14.3297568 C5.50688679,13.1708784 5.965,12.0697027 6.56839623,11.0474189 C6.73264151,10.7691216 6.68839623,10.4171351 6.4609434,10.1879324 L4.73311321,8.44833784 C4.61367925,8.32858108 4.54792453,8.16985135 4.54801887,8.00033784 C4.54801887,7.83082432 4.61386792,7.67171622 4.73349057,7.55186486 L7.57820755,4.70059459 C7.69783019,4.58064865 7.85716981,4.51471622 8.02688679,4.51471622 C8.19660377,4.51471622 8.35584906,4.58074324 8.4754717,4.70068919 C8.48,4.70532432 8.48471698,4.70995946 8.4895283,4.7145 L10.315,6.44614865 C10.5443396,6.66381081 10.8898113,6.70259459 11.1616038,6.54131081 C12.2593396,5.88983784 13.2863208,5.45602703 14.3608491,5.17583784 C14.6727358,5.09458108 14.9056604,4.81231081 14.9056604,4.48917568 L14.9056604,2.04778378 C14.9056604,1.69191892 15.1459434,1.41891892 15.4916981,1.41891892 L19.5132075,1.41891892 C19.8588679,1.41891892 20.0943396,1.69191892 20.0943396,2.04778378 L20.0943396,4.48917568 C20.0943396,4.81231081 20.3296226,5.09458108 20.6415094,5.17583784 C21.7979245,5.47731081 22.9096226,5.93675676 23.9285849,6.5415 C24.2059434,6.70618919 24.5638679,6.66201351 24.7924528,6.43394595 L26.5315094,4.71336486 C26.6507547,4.5937973 26.8116038,4.54054054 26.9804717,4.54054054 L26.9807547,4.54054054 C27.1498113,4.54054054 27.3087736,4.59398649 27.4282075,4.71383784 L30.2716981,7.55990541 C30.5190566,7.80802703 30.5190566,8.20854054 30.2711321,8.45722973 L28.544434,10.1913378 C28.3165094,10.4204459 28.2721698,10.7743243 28.4363208,11.0528108 C29.0391509,12.0744324 29.4974528,13.1706892 29.7983019,14.3304189 C29.8795283,14.6430541 30.1609434,14.8513514 30.4831132,14.8513514 L32.9179245,14.8513514 C33.2727358,14.8513514 33.5849057,15.1419459 33.5849057,15.4886351 L33.5849057,19.5212027 L33.5849057,19.5212027 Z" id="Fill-1"></path>
                <path d="M17.5022642,8.66032432 C12.6385849,8.66032432 8.68160377,12.628 8.68160377,17.5049189 C8.68160377,22.3817432 12.6385849,26.3494189 17.5022642,26.3494189 C22.3660377,26.3494189 26.3230189,22.3817432 26.3230189,17.5049189 C26.3230189,12.628 22.3660377,8.66032432 17.5022642,8.66032432 L17.5022642,8.66032432 Z M17.5022642,24.9305 C13.4188679,24.9305 10.0966981,21.5993514 10.0966981,17.5049189 C10.0966981,13.4103919 13.4188679,10.0792432 17.5022642,10.0792432 C21.5858491,10.0792432 24.9079245,13.4103919 24.9079245,17.5049189 C24.9079245,21.5993514 21.5858491,24.9305 17.5022642,24.9305 L17.5022642,24.9305 Z" id="Fill-2"></path>
            </g>
        </g>
    </g>
</svg>