<svg id="Layer_1" width="56px" height="56px" data-name="Layer 1" xmlns="http://www.w3.org/2000/svg" viewBox="0 0 56.69 56.69"><defs><style>.round-book-hover-1,.round-book-hover-2{fill:#3d4c4d;}.round-book-hover-2{font-size:4.89px;font-family:Gotham;}</style></defs><title>icon_03_hover</title><path class="round-book-hover-1" d="M28.35,1A27.35,27.35,0,1,1,1,28.35,27.38,27.38,0,0,1,28.35,1m0-1A28.35,28.35,0,1,0,56.69,28.35,28.35,28.35,0,0,0,28.35,0h0Z" transform="translate(0 0)"/><polygon class="round-book-hover-1" points="16.52 42.29 14.76 40.68 16.52 40.68 16.52 42.29"/><text class="round-book-hover-2" transform="translate(20.73 22.16)">A - Å</text><path class="round-book-hover-1" d="M39.36,11.48V40.92H34.71v0.46h5.1V13.1h0.83v29.2H34.71v4.53l-1.59-1.61-1.59,1.61V42.29h-15l-1.76-1.62V11.48H39.36M18.64,24.63H35.48V16.34H18.64v8.29M17.3,41.38H31.53V40.92H16.79l0.51,0.46m23.05-30.9H13.77V41.12l0.32,0.3L15.85,43l0.29,0.26h14.4v6l1.71-1.74,0.88-.89L34,47.52l1.71,1.74v-6h5.93V12.1H40.36V10.48h0ZM19.64,17.34H34.48v6.29H19.64V17.34h0Z" transform="translate(0 0)"/></svg>