<?xml version="1.0" encoding="UTF-8"?>
<svg width="32px" height="32px" viewBox="0 0 32 32" version="1.1" xmlns="http://www.w3.org/2000/svg" xmlns:xlink="http://www.w3.org/1999/xlink">
    <g id="Page-1" stroke="none" stroke-width="1" fill="none" fill-rule="evenodd">
        <g id="Home---MajWorld" transform="translate(-27.000000, -16.000000)" fill="#435050" fill-rule="nonzero">
            <g id="NAVIGATION">
                <g id="Home">
                    <g id="Icon" transform="translate(27.000000, 16.000000)">
                        <g id="Group">
                            <path d="M15.9015645,31.9011094 C7.13338132,31.9011094 1.42108547e-14,24.7457514 1.42108547e-14,15.9505547 C1.42108547e-14,7.15561342 7.13338132,-4.97379915e-14 15.9015645,-4.97379915e-14 C24.6697484,-4.97379915e-14 31.8031296,7.15561342 31.8031296,15.9505547 C31.8031296,24.7457514 24.6697484,31.9011094 15.9015645,31.9011094 Z M15.9015645,1.27733193 C7.8355389,1.27733193 1.27315416,7.85967879 1.27315416,15.9505547 C1.27315416,24.0414306 7.8355389,30.6237775 15.9015645,30.6237775 C23.9675904,30.6237775 30.529721,24.0414306 30.529721,15.9505547 C30.529721,7.85967879 23.9675904,1.27733193 15.9015645,1.27733193 Z" id="Fill-3"></path>
                            <polyline id="Fill-4" points="7 12 9.07973121 12 10.7738742 14.7577597 12.4680172 12 14.5477484 12 14.5477484 19.1234247 12.5897552 19.1234247 12.5897552 15.0326415 10.7738742 17.8208016 10.7333798 17.8208016 8.92743148 15.0528233 8.92743148 19.1234247 7 19.1234247 7 12"></polyline>
                            <polyline id="Fill-5" points="15 12.0204373 17.0797309 12.0204373 18.3172297 16.1418766 19.6869085 12 21.381051 12 22.7507298 16.1418766 23.9884832 12.0204373 26.0274655 12.0204373 23.6535769 19.1946999 21.939059 19.1946999 20.5087668 15.093698 19.0884066 19.1946999 17.3738886 19.1946999 15 12.0204373"></polyline>
                        </g>
                    </g>
                </g>
            </g>
        </g>
    </g>
</svg>