<?xml version="1.0" encoding="UTF-8" standalone="no"?>
<svg width="21px" height="22px" viewBox="0 0 21 22" version="1.1" xmlns="http://www.w3.org/2000/svg" xmlns:xlink="http://www.w3.org/1999/xlink" xmlns:sketch="http://www.bohemiancoding.com/sketch/ns">
    <g id="Page-1" stroke="none" stroke-width="1" fill="none" fill-rule="evenodd" sketch:type="MSPage">
        <g id="01_University-_-Landing" sketch:type="MSArtboardGroup" transform="translate(-742.500000, -73.000000)" fill="#435050">
            <g id="Searbar_Closed" sketch:type="MSLayerGroup" transform="translate(743.000000, 73.000000)">
                <path d="M19.6779314,21.1412211 L13.6249011,14.2315242 C14.8145981,13.2024332 15.6394465,11.8724332 16.0764162,10.2660696 C16.6530829,8.11576657 16.374295,6.03516051 15.2497496,4.08394839 C14.153689,2.15243324 12.4930829,0.876675665 10.3133859,0.291827181 C8.17732533,-0.281203123 6.10550715,-0.00999100129 4.14550715,1.10243324 C2.21399199,2.21637264 0.93914351,3.88213021 0.356416237,6.05394839 C-0.223583763,8.21455445 0.0494465401,10.2848575 1.16581018,12.2027363 C2.26884048,14.1469787 3.92944654,15.4281908 6.10187078,16.0109181 C6.82793139,16.2057666 7.55247684,16.3045545 8.25550715,16.3045545 C9.62944654,16.3045545 10.9800526,15.9275848 12.2800526,15.1781908 C12.5003556,15.0433423 12.7067193,14.909706 12.9079314,14.7760696 L19.0024768,21.7327363 C19.0909617,21.8342514 19.2152041,21.8857666 19.3406587,21.8857666 C19.4455071,21.8857666 19.5509617,21.8494029 19.6361132,21.7745545 C19.8224768,21.6112211 19.8415678,21.3275848 19.6779314,21.1412211 L19.6779314,21.1412211 Z M11.8215678,14.4066757 C10.6697496,15.070312 9.4700526,15.4066757 8.25550715,15.4066757 C7.63096169,15.4066757 6.98459806,15.3181908 6.33459806,15.1439484 C4.40338593,14.6257666 2.92641624,13.4869787 1.94399199,11.7554635 C0.936416237,10.0236454 0.700658661,8.23455445 1.22338593,6.28667567 C1.74974957,4.32637264 2.85217381,2.88485748 4.59126472,1.88182718 C5.74429502,1.22728173 6.94277987,0.895766574 8.1530829,0.895766574 C8.78065866,0.895766574 9.42944654,0.984251423 10.0806587,1.15909991 C12.0194465,1.67940294 13.4958102,2.81243324 14.4703556,4.52970597 C15.4873253,6.29425142 15.7288405,8.09455445 15.2094465,10.0318272 C14.7721738,11.639706 13.9033859,12.9363726 12.6394465,13.8763726 C12.3900526,14.0484938 12.1115678,14.2287969 11.8215678,14.4066757 L11.8215678,14.4066757 Z" id="Imported-Layers-3" sketch:type="MSShapeGroup"></path>
            </g>
        </g>
    </g>
</svg>