<?xml version="1.0" encoding="UTF-8"?>
<svg viewBox="0 0 41 33" version="1.1" xmlns="http://www.w3.org/2000/svg" xmlns:xlink="http://www.w3.org/1999/xlink">
    <g id="Page-1" stroke="none" stroke-width="1" fill="none" fill-rule="evenodd">
        <g id="Combined-Shape-2" fill="#ECF0F0" fill-rule="nonzero">
            <path d="M1.17814736,0 L39.8210662,0 C40.4722718,0 41,0.542561011 41,1.21206998 L41,26.6129815 C41,27.2816819 40.4722718,27.8242429 39.8210662,27.8242429 L23.3985728,27.8242429 L23.3985728,31.1531902 L26.412365,31.1531902 C26.9550364,31.1531902 27.4300704,31.5841664 27.4300704,32.0757865 C27.4300704,32.5690238 26.9550364,33 26.412365,33 L14.587635,33 C14.0449636,33 13.5699296,32.6304763 13.5699296,32.0757865 C13.5699296,31.5841664 14.0449636,31.1531902 14.587635,31.1531902 L17.6014272,31.1531902 L17.6014272,27.8242429 L1.17814736,27.8242429 C0.527728223,27.8242429 0,27.2816819 0,26.6129815 L0,1.21206998 C0,0.542561011 0.527728223,0 1.17814736,0 Z M1.94811149,25.7494119 L39.0518885,25.7494119 L39.0518885,2.07483093 L1.94811149,2.07483093 L1.94811149,25.7494119 Z" id="Combined-Shape"></path>
        </g>
    </g>
</svg>