<?xml version="1.0" encoding="UTF-8" standalone="no"?>
<svg width="31px" height="41px" viewBox="0 0 31 41" version="1.1" xmlns="http://www.w3.org/2000/svg" xmlns:xlink="http://www.w3.org/1999/xlink" xmlns:sketch="http://www.bohemiancoding.com/sketch/ns">
    <g id="Page-1" stroke="none" stroke-width="1" fill="none" fill-rule="evenodd" sketch:type="MSPage">
        <g id="Imported-Layers" sketch:type="MSLayerGroup" fill="#ECF0F0">
            <g id="Fill-1-+-Fill-2-+-Fill-3" sketch:type="MSShapeGroup">
                <g>
                    <path d="M25.6676981,39.4926471 L17.512987,39.4926471 L17.512987,32.3083015 C17.512987,31.8920711 17.1751071,31.554625 16.7581169,31.554625 C16.3411266,31.554625 16.0032468,31.8920711 16.0032468,32.3083015 L16.0032468,39.4926471 L8.74592532,39.4926471 C8.32893506,39.4926471 7.99105519,39.8300931 7.99105519,40.2463235 C7.99105519,40.6625539 8.32893506,41 8.74592532,41 L25.6676981,41 C26.0845877,41 26.4225682,40.6625539 26.4225682,40.2463235 C26.4225682,39.8300931 26.0845877,39.4926471 25.6676981,39.4926471" id="Fill-1"></path>
                    <path d="M27.9666299,23.7811054 C27.6718279,23.4867696 27.1939448,23.4867696 26.8990422,23.7811054 C26.6042403,24.0754412 26.6042403,24.5526691 26.8990422,24.8469044 L27.291776,25.2391176 C24.449237,27.8724632 20.7731201,29.3167083 16.8740649,29.3167083 C8.41992208,29.3167083 1.54194805,22.4496103 1.54194805,14.0087353 C1.54194805,10.1571471 2.95748052,6.52301961 5.54215584,3.69763725 L5.83232792,3.98735049 C5.97977922,4.13456863 6.17292532,4.20812745 6.36617208,4.20812745 C6.55931818,4.20812745 6.75256494,4.13446814 6.90001623,3.98735049 C7.19471753,3.69301471 7.19471753,3.21578676 6.90001623,2.92145098 L4.20351948,0.229218137 C3.90861688,-0.0651176471 3.43073377,-0.0652181373 3.13583117,0.229218137 C2.84112987,0.523553922 2.84112987,1.00078186 3.13583117,1.29501716 L4.47396429,2.63103431 C1.6048539,5.74190931 0.0322077922,9.75438235 0.0322077922,14.0087353 C0.0322077922,23.2807647 7.5874513,30.8240613 16.8740649,30.8240613 C21.1764221,30.8240613 25.2316851,29.2232525 28.3600682,26.3056201 L29.6634773,27.6069681 C29.8109286,27.7540858 30.0041753,27.8277451 30.1973214,27.8277451 C30.3903669,27.8277451 30.5836136,27.7540858 30.7310649,27.6069681 C31.0258669,27.3126324 31.0258669,26.8354044 30.7310649,26.5411691 L27.9666299,23.7811054 Z" id="Fill-2"></path>
                    <path d="M7.9284513,22.7871569 C10.3156526,25.2002279 13.4864091,26.5294118 16.8565519,26.5294118 L16.8875519,26.5294118 C20.2549773,26.5294118 23.4303636,25.2088701 25.8310519,22.7866544 C28.2030552,20.3933799 29.4862338,17.2744657 29.4443636,13.9929583 C29.4602662,10.6806005 28.184737,7.55666176 25.8524903,5.19132353 C23.4960877,2.80116422 20.3294578,1.47770833 16.9360649,1.46183088 C13.5627013,1.44826471 10.3941591,2.73725245 8.01611688,5.0962598 C5.65508442,7.4383848 4.33647727,10.5554902 4.30346429,13.8841275 C4.27035065,17.2326618 5.55775649,20.3907672 7.9284513,22.7871569 L7.9284513,22.7871569 Z M27.4280552,14.8399902 C27.7056461,14.4597353 27.9521364,14.042098 28.1805097,13.5625588 C28.2387857,14.8971691 28.0973734,16.0479828 27.7473149,17.086549 C27.6363994,16.5083284 27.4941818,16.0050735 27.3125097,15.5421152 C27.2074318,15.2744093 27.2356136,15.103777 27.4280552,14.8399902 L27.4280552,14.8399902 Z M17.2719318,3.85621078 C17.5869643,3.79410784 17.9245422,3.74516912 18.2901006,3.70788725 C18.3473701,3.74094853 18.4328214,3.84807108 18.4886818,3.9431348 C18.0840714,3.89690931 17.6769448,3.87148529 17.2719318,3.85621078 L17.2719318,3.85621078 Z M25.1327468,8.01710784 C26.1743669,8.91227451 26.950776,9.91054412 27.5041461,11.0660809 C27.5241753,11.1079853 27.5564838,11.1755147 27.5656429,11.2076716 C27.4889481,11.9474804 27.2700357,12.648902 26.8966266,13.3513284 C26.8341234,13.468902 26.7639708,13.5825564 26.6896916,13.7027426 C26.6548669,13.7591176 26.6201429,13.8155931 26.5861234,13.8724706 C26.0935455,12.9389167 25.4703247,12.0170196 24.6838506,11.0583431 L24.5945747,10.9489093 C24.4470227,10.7671225 24.2943377,10.5791054 24.1193084,10.4091765 C24.0181558,10.3108971 24.0208734,10.3006471 24.0898182,10.1971422 C24.4614156,9.63741176 24.9073929,8.89338235 25.1327468,8.01710784 L25.1327468,8.01710784 Z M12.3620552,3.66397304 C12.4193247,3.63965441 12.4775,3.61533578 12.5366818,3.59111765 C12.533763,3.62568627 12.5319513,3.66015441 12.5301396,3.69442157 C12.5286299,3.72336275 12.5265162,3.76175 12.5232955,3.79702206 C12.4915909,3.77320588 12.455961,3.74295833 12.4281818,3.71934314 C12.4068442,3.7012549 12.3848019,3.68256373 12.3620552,3.66397304 L12.3620552,3.66397304 Z M10.1116364,9.21665931 C10.0967403,9.26549755 10.0839578,9.29142402 10.0764091,9.30428676 C10.0636266,9.30318137 10.0409805,9.29946324 10.0049481,9.28800735 C9.78331818,9.21746324 9.51941558,9.13345343 9.38374026,9.0732598 C9.41675325,9.03045098 9.46023377,8.97809559 9.5008961,8.92945833 C9.57114935,8.84514706 9.65861364,8.7401348 9.75433117,8.61341667 C10.0730877,8.19186029 10.4336136,7.79793873 10.7952468,7.43697794 C10.7831688,7.46250245 10.7710909,7.48802696 10.7589123,7.51355147 C10.5182597,8.0196201 10.3064935,8.57673775 10.1116364,9.21665931 L10.1116364,9.21665931 Z M14.1163734,10.1760392 C14.8573539,9.95254902 15.5458961,9.62093137 16.0629318,9.35704412 C16.0928247,9.34176961 16.1111429,9.33594118 16.1205032,9.33373039 C16.1279513,9.34006127 16.1423442,9.35392892 16.1630779,9.38216667 C17.0659026,10.6130711 17.9420552,11.9175343 18.7675812,13.2597819 C17.5768994,13.9187966 16.3493799,14.4381299 15.1186396,14.8037132 C15.1059578,14.8074314 15.092974,14.8101446 15.0798896,14.8126569 C15.077474,14.8036127 15.0752597,14.7950711 15.0736494,14.7888407 C14.8068279,13.7600221 14.5031688,12.5397696 14.2731851,11.2888676 C14.2523506,11.1752132 14.2321201,11.0612574 14.2119903,10.947402 C14.1699188,10.7097426 14.126539,10.4640441 14.0764156,10.2220637 C14.0738994,10.2095025 14.0725909,10.1997549 14.0718864,10.1924191 C14.0811461,10.1879975 14.0954383,10.1823701 14.1163734,10.1760392 L14.1163734,10.1760392 Z M17.3061526,6.95683578 C17.0192013,7.22484314 16.7482532,7.47807843 16.434026,7.68106863 C16.4231558,7.68810294 16.4141981,7.69322794 16.4071526,7.69684559 C16.4046364,7.69403186 16.4020195,7.69071569 16.3991006,7.68689706 C15.9444675,7.09028676 15.4637662,6.53186275 14.9101948,5.92108333 C15.1386688,5.9839902 15.3632175,6.0557402 15.5868604,6.13713725 C16.3210974,6.40434069 16.8761786,6.63426225 17.3858669,6.88247304 L17.3061526,6.95683578 L17.3061526,6.95683578 Z M15.5665292,15.9581446 C16.6576688,15.6291397 17.7303896,15.1922083 18.755,14.6593088 C18.9477435,14.5591201 19.1469286,14.4555147 19.3401753,14.3341225 C19.3582922,14.3227672 19.3722825,14.3152304 19.38275,14.3101054 C19.3897955,14.3193505 19.3986526,14.3324142 19.4095227,14.3506029 C19.8481526,15.0905123 20.2758117,15.8792598 20.6805227,16.6950392 C20.8315974,16.999625 20.9803571,17.3128529 21.1242857,17.6158309 C21.2516071,17.8839387 21.3789286,18.1520466 21.5096721,18.4185466 C21.517724,18.435027 21.5224545,18.4471863 21.5251721,18.4557279 C21.516013,18.4632647 21.5001104,18.4748211 21.4739416,18.4896936 C20.0548864,19.2927108 18.5539026,19.9292157 17.0125584,20.3816225 C16.9814578,20.3907672 16.9494513,20.397701 16.9301266,20.4020221 C16.9179481,20.402625 16.9111039,20.4021225 16.9093929,20.402826 C16.9052662,20.397299 16.8952013,20.3811201 16.8804058,20.3408235 C16.805724,20.1371299 16.7304383,19.9336373 16.6552532,19.7300441 C16.2950292,18.7564951 15.9227273,17.7496838 15.6253084,16.7400588 C15.5994416,16.6524314 15.5723669,16.5653064 15.5451916,16.4780809 C15.5143929,16.379098 15.4834935,16.2800147 15.4548084,16.1804289 C15.4326656,16.1038554 15.4182727,16.0470784 15.4116299,16.0106005 C15.4399123,15.9988431 15.4874188,15.9820613 15.5665292,15.9581446 L15.5665292,15.9581446 Z M13.8811558,15.1272917 C13.8671656,15.1326176 13.8447208,15.1397525 13.8098961,15.1467868 C12.8006851,15.3512843 11.7854351,15.4585074 10.7924286,15.4652402 C10.6674221,15.4662451 10.4597825,15.4675515 10.3912403,15.4473529 C10.371513,15.379924 10.3668831,15.1782402 10.3668831,15.041473 L10.3668831,14.8604902 C10.4675325,13.4790515 10.6131721,12.1023358 10.9376656,10.7684289 C10.9597078,10.6775858 10.9827565,10.6605025 10.9829578,10.660402 C10.9859773,10.6581912 11.0095292,10.6504534 11.0627727,10.6530662 C11.675526,10.6848211 12.2782143,10.6309583 12.8529221,10.4934877 C12.8573506,10.4924828 12.8619805,10.4914779 12.8658052,10.4907745 C12.8701331,10.5075564 12.8753669,10.5315735 12.8811039,10.5657402 C13.0641851,11.6582696 13.2844058,12.7319069 13.535224,13.7567059 C13.5596818,13.8564926 13.583737,13.9563799 13.6076916,14.0562672 C13.6861981,14.3836642 13.7674221,14.7221152 13.8648506,15.0532304 C13.8751169,15.088402 13.8794448,15.1121176 13.8811558,15.1272917 L13.8811558,15.1272917 Z M10.6689318,16.7049877 L10.6946981,16.7053897 C11.7758734,16.7194583 12.8987175,16.5978652 14.0310227,16.343826 C14.1622695,16.3144828 14.1947792,16.3300588 14.1947792,16.3300588 C14.1952825,16.3302598 14.2239675,16.3510613 14.2595974,16.4758701 C14.6929935,17.993875 15.1631266,19.367174 15.6969708,20.674049 C15.7033117,20.6895245 15.7079416,20.7023873 15.7111623,20.7129387 C15.6950584,20.7179632 15.672513,20.7313284 15.6416136,20.7374583 C14.3095195,21.0048627 13.277461,21.1029412 12.295224,21.1029412 L11.5163994,21.1029412 C11.382737,21.1029412 11.317013,21.0677696 11.2565227,20.8976397 C10.8007825,19.6154853 10.5248019,18.2875074 10.4356266,16.9526961 C10.4295877,16.8626569 10.4234481,16.768598 10.4233474,16.7075 C10.4845422,16.7043848 10.5779448,16.7037819 10.6689318,16.7049877 L10.6689318,16.7049877 Z M25.6770584,15.1025711 C24.9513766,15.9243799 24.2241851,16.5973627 23.4538149,17.1599069 L23.1708896,17.3673186 C22.9833799,17.5049902 22.7958701,17.6425613 22.6071526,17.778223 C22.6008117,17.7828456 22.5939675,17.7874681 22.5867208,17.7919902 C22.5857143,17.7898799 22.5848084,17.7878701 22.5838019,17.7857598 C22.475,17.5607623 22.3672045,17.3351618 22.2593084,17.1096618 C22.1316851,16.8427598 22.003961,16.5757574 21.8748279,16.3094583 C21.4339838,15.4012279 20.9463377,14.5377157 20.4850617,13.7398235 C20.4668442,13.7083701 20.4574838,13.6873676 20.4526526,13.6745049 C20.4611071,13.6664657 20.4748961,13.6548088 20.497039,13.6394338 C21.610724,12.8671667 22.506,12.1004265 23.2339968,11.295299 C23.2380227,11.290777 23.2418474,11.2867574 23.2452695,11.2831397 C23.2503019,11.2882647 23.2559383,11.2941936 23.2619773,11.3011275 C24.3322825,12.5094216 25.1322435,13.6794289 25.7074545,14.8779755 C25.7577792,14.9827868 25.7531494,15.0163505 25.6770584,15.1025711 L25.6770584,15.1025711 Z M22.2956429,10.4924828 C21.5658344,11.2699755 20.7462468,11.972201 19.859526,12.5793627 C19.8415097,12.591723 19.8268149,12.6006667 19.8153409,12.607299 C19.8073896,12.5960441 19.7973247,12.5810711 19.7851461,12.561174 C19.0937857,11.42875 18.3306623,10.2831618 17.5169123,9.15606373 C17.4944675,9.12501225 17.4733312,9.09305637 17.4521948,9.06110049 C17.4278377,9.02462255 17.4034805,8.98804412 17.377513,8.95196814 C17.295987,8.8386152 17.2121461,8.72194608 17.1821526,8.66175245 C17.229961,8.61371814 17.3466136,8.52930637 17.443237,8.4593652 C17.8161429,8.18944853 18.1315779,7.87350735 18.4368474,7.56791667 C18.4497305,7.55505392 18.4623117,7.54168873 18.4748929,7.52812255 C18.4852597,7.51696814 18.4988474,7.50249755 18.5102208,7.49154412 C18.5441396,7.50661765 18.5778571,7.52229412 18.6071461,7.53937745 C19.9761786,8.33847549 21.2165812,9.2742402 22.2940325,10.3204436 C22.3379156,10.3630515 22.3579448,10.3891789 22.3668019,10.4030466 C22.3584481,10.4177181 22.3390227,10.4462574 22.2956429,10.4924828 L22.2956429,10.4924828 Z M13.8699838,8.96764461 L13.868474,8.95638971 C13.823987,8.61703431 13.768026,8.16884804 13.7295779,7.71262255 C13.6968669,7.32422794 13.6717045,6.93593382 13.6450325,6.52472794 C13.6419123,6.47558824 13.6386916,6.42624755 13.6354708,6.3765049 C14.25225,6.99703186 14.8158864,7.67644608 15.3442955,8.32842647 C14.8279643,8.60165931 14.3442435,8.81138235 13.8699838,8.96764461 L13.8699838,8.96764461 Z M8.69711039,10.111424 C8.69872078,10.1088113 8.70023052,10.1063995 8.70163961,10.1039877 C8.99412662,10.2696961 9.32103571,10.3923946 9.69957792,10.4787157 C9.71719156,10.4827353 9.72987338,10.4867549 9.73862987,10.4901716 C9.73772403,10.5039387 9.73470455,10.5262475 9.72625,10.5599118 C9.34539286,12.0663603 9.14650974,13.6551103 9.13523701,15.282348 C8.32531169,15.1260858 7.63666883,14.8532549 7.03237013,14.4494853 C7.0298539,14.447777 7.02774026,14.4461691 7.02633117,14.4450637 C7.02552597,14.4335074 7.02703571,14.4077819 7.03850974,14.3503015 C7.24131818,13.3390686 7.56490584,12.3541642 8.00011364,11.4227206 C8.21701299,10.9587574 8.45152597,10.5175049 8.69711039,10.111424 L8.69711039,10.111424 Z M20.7924448,20.2421422 C21.1810519,20.0530196 21.5709675,19.8431961 21.9514221,19.6188015 C21.9744708,19.6051348 21.9930909,19.5950858 22.0076851,19.587549 C22.0119123,19.5969951 22.0165422,19.6081495 22.021474,19.6211127 C22.2904091,20.3271569 22.5927597,21.1684608 22.7957695,22.0559902 C22.8107662,22.1213088 22.8221396,22.1874314 22.8323052,22.2458162 C22.8368344,22.2719436 22.8411623,22.2966642 22.8453896,22.3194755 C22.8461948,22.3267108 22.8463961,22.3314338 22.847,22.3330417 C22.8410617,22.3389706 22.8253604,22.3516324 22.7845974,22.3754485 C21.5930097,23.0693333 20.3034903,23.6183113 18.841961,24.0534338 C18.8156916,24.0612721 18.8017013,24.0625784 18.7998896,24.0639853 C18.7948571,24.0599657 18.7813701,24.0478064 18.7600325,24.0170564 C18.2895974,23.3397525 17.8589188,22.5540196 17.4057955,21.5462034 C18.518776,21.233076 19.6581266,20.7944363 20.7924448,20.2421422 L20.7924448,20.2421422 Z M18.1887468,5.90098529 C18.185526,5.89947794 18.1819026,5.89776961 18.1780779,5.89596078 C17.5285877,5.57951716 16.9361656,5.3166348 16.3727305,5.09605882 C17.115724,5.07324755 17.8251006,5.1086201 18.5191786,5.2028799 C18.4481201,5.44455882 18.3249253,5.66965686 18.1887468,5.90098529 L18.1887468,5.90098529 Z M12.672961,9.28469118 C12.6705455,9.28670098 12.6437727,9.30559314 12.5515779,9.31423529 C12.2993506,9.33775 12.0448084,9.38166422 11.7985195,9.40960049 C11.7351104,9.41673529 11.6716006,9.44607843 11.6081916,9.44607843 L11.4094091,9.44607843 C11.3881721,9.44607843 11.3656266,9.4310049 11.3433831,9.43080392 C11.3504286,9.40889706 11.3573734,9.37965441 11.3638149,9.35975735 C11.6414058,8.50277696 12.0305162,7.69312745 12.4263701,6.93402451 C12.4622013,7.66971324 12.5429221,8.40761275 12.6673247,9.13717157 C12.6866494,9.25042402 12.6721558,9.28438971 12.672961,9.28469118 L12.672961,9.28469118 Z M8.70204221,7.67895833 C8.89186688,7.52983088 9.07987987,7.3912549 9.26708766,7.26252696 C9.20881169,7.32734314 9.15113961,7.39326471 9.09487662,7.46029167 C8.93081818,7.65604657 8.72197078,7.90928186 8.52067208,8.17929902 C8.41529221,7.93711765 8.45112338,7.87622059 8.70204221,7.67895833 L8.70204221,7.67895833 Z M6.84959091,16.1500809 C6.84908766,16.0283873 6.85170455,15.9065931 6.85261039,15.784799 C7.51649351,16.1448554 8.24680519,16.3874387 9.07696104,16.5251103 C9.11742208,16.5318431 9.1299026,16.5408873 9.1299026,16.5408873 C9.1301039,16.5410882 9.14268506,16.5568652 9.14962987,16.6159534 C9.17418831,16.825375 9.19401623,17.040424 9.21303896,17.2484387 C9.24977597,17.6480882 9.28772078,18.0613039 9.362,18.4698971 C9.50230519,19.2424657 9.66233766,20.0618627 9.93560065,20.8539265 C9.05320779,20.6611863 8.31122078,20.3494657 7.66847403,19.9015809 C7.52816883,19.8038039 7.42892857,19.6758799 7.36038636,19.4867574 C6.99351948,18.4768309 6.84415584,17.4283162 6.84415584,16.3700539 L6.84415584,16.3667377 L6.84959091,16.1500809 L6.84959091,16.1500809 Z M8.8967987,21.8564167 C9.39108766,22.0109706 9.87913636,22.124223 10.3477597,22.1930588 C10.4680357,22.2107451 10.4750812,22.2262206 10.4825292,22.2425 C10.7382792,22.806451 11.0482792,23.3276936 11.417763,23.8741593 C10.3928506,23.3681912 9.48750974,22.6723971 8.71391883,21.7961225 C8.77450974,21.8170245 8.8354026,21.8373235 8.8967987,21.8564167 L8.8967987,21.8564167 Z M16.1248312,21.8869657 C16.1565357,21.8798309 16.1751558,21.878223 16.1848182,21.8781225 C16.1915617,21.8866642 16.2044448,21.9054559 16.2226623,21.9431397 L16.3463604,22.2003946 C16.6943052,22.9250294 17.0535227,23.6731789 17.5040292,24.3680686 C16.5159545,24.5700539 15.6831818,24.6453211 14.8121623,24.6109534 L14.773211,24.6094461 L14.7354675,24.6197966 C14.1476753,24.7814853 13.6231916,24.5443284 12.9815519,23.826125 C12.6084448,23.4084877 12.2653312,22.9328676 11.9074221,22.3358554 C13.2310617,22.37575 14.6113669,22.2289338 16.1248312,21.8869657 L16.1248312,21.8869657 Z M23.9776948,21.6235809 C23.9686364,21.5904191 23.9595779,21.5560515 23.951526,21.5256029 C23.7350292,20.7057034 23.457237,19.8790711 23.1256981,19.0684167 C23.0880552,18.9763676 23.0934903,18.9498382 23.0934903,18.9493358 C23.0935909,18.9491348 23.1023474,18.9316495 23.1485455,18.9013015 C24.3102403,18.1410931 25.3582013,17.2684363 26.2660584,16.3056397 C26.5132532,17.0522819 26.6153117,17.7613407 26.5866266,18.5239608 L26.5853182,18.5599363 L26.5940747,18.5948064 C26.6978442,19.0065147 26.52825,19.3810417 26.0084968,19.8873113 C25.4649903,20.4168946 24.8103669,21.0289804 24.0760292,21.5539412 C24.0446266,21.5763505 24.0103052,21.6009706 23.9776948,21.6235809 L23.9776948,21.6235809 Z M23.819776,5.62443627 C22.4800325,4.92492402 21.324276,4.49161029 20.1829123,4.2608848 C19.8924383,4.20219853 19.7989351,4.11276225 19.7479058,3.8447549 L19.7325065,3.76476471 C19.7261656,3.73210539 19.7195227,3.69773775 19.7136851,3.66578186 C19.7632045,3.66960049 19.8189643,3.67512745 19.869289,3.68005147 C21.1251916,3.80275 22.1064221,4.07889706 22.9573117,4.54919118 C23.4011753,4.79438725 23.662461,5.166 23.8551039,5.64352941 C23.8435292,5.63699755 23.8317532,5.63066667 23.819776,5.62443627 L23.819776,5.62443627 Z M19.7152955,5.51269118 C19.7284805,5.4601348 19.7405584,5.43390686 19.7471006,5.42204902 C19.7596818,5.42134559 19.7853474,5.42285294 19.8300357,5.43320343 C21.3333344,5.78391422 22.7280325,6.36484804 23.9750779,7.16012745 C24.0299318,7.19509804 24.0382857,7.21258333 24.0382857,7.21258333 C24.0382857,7.21258333 24.0389903,7.21549755 24.0385877,7.22243137 C24.0058766,7.49285049 23.9358247,7.77301716 23.8304448,8.05529412 C23.6574286,8.51885539 23.4307662,8.96513235 23.1378766,9.41844363 C21.9602792,8.29576716 20.7024643,7.34050735 19.3986526,6.57869118 C19.3172273,6.53105882 19.2863279,6.50151471 19.2753571,6.48855147 C19.2798864,6.47448284 19.2932727,6.44262745 19.3328279,6.38866422 C19.500711,6.16004902 19.6221948,5.88169118 19.7152955,5.51269118 L19.7152955,5.51269118 Z M25.6836006,6.88066422 C25.4766656,6.78057598 25.3658506,6.64441176 25.3096883,6.44091912 C25.4419416,6.58391667 25.5693636,6.73173775 25.6919545,6.88478431 C25.6891364,6.88337745 25.6863182,6.88197059 25.6836006,6.88066422 L25.6836006,6.88066422 Z M6.01611364,13.2624951 C5.77566234,12.7672794 5.71668182,12.2837206 5.84088312,11.8212647 C6.12431169,10.7661176 6.67264935,9.77508333 7.47110065,8.87479167 C7.54467532,9.01186029 7.62801299,9.13908088 7.70963961,9.26358824 L7.73560714,9.30348284 C7.72795779,9.31725 7.71849675,9.33322794 7.7110487,9.34558824 L7.70319805,9.35865196 C6.91742857,10.675174 6.36385714,11.9554191 6.01611364,13.2624951 L6.01611364,13.2624951 Z M5.58221429,14.9072181 C5.65518506,15.0747353 5.68236039,15.2509951 5.64491883,15.4712696 C5.64361039,15.4786054 5.64250325,15.4860417 5.64119481,15.4934779 C5.61573052,15.2986275 5.5961039,15.1032745 5.58221429,14.9072181 L5.58221429,14.9072181 Z" id="Fill-3"></path>
                </g>
            </g>
        </g>
    </g>
</svg>