<?xml version="1.0" encoding="UTF-8" standalone="no"?>
<svg width="22px" height="36px" viewBox="0 0 22 36" version="1.1" xmlns="http://www.w3.org/2000/svg" xmlns:xlink="http://www.w3.org/1999/xlink" xmlns:sketch="http://www.bohemiancoding.com/sketch/ns">
    <g id="Page-1" stroke="none" stroke-width="1" fill="none" fill-rule="evenodd" sketch:type="MSPage">
        <g id="University" sketch:type="MSLayerGroup" fill="#ECF0F0">
            <g id="Fill-1-+-Fill-2-+-Fill-3" sketch:type="MSShapeGroup">
                <path d="M14.8768888,28.5772368 L14.8736429,28.5772368 L10.9377004,28.5608525 L6.99511141,28.5772368 L6.99186547,28.5772368 C6.61657217,28.5772368 6.29522343,28.2801554 6.23061363,27.9099628 C6.22257604,27.8648287 5.37816613,23.2388906 1.71009153,16.8813171 C0.593794928,15.131288 0.00396,13.0996344 0.00396,11.0171276 C0.00396,5.00362449 4.89529289,0.107963671 10.9075594,0.107963671 L10.943574,0.106572551 L10.9737149,0.105336 C16.9821173,0.105336 21.8702042,4.99728716 21.8702042,11.0107903 C21.8702042,13.0895874 21.2791327,15.1142855 20.1605176,16.8678697 C16.492443,23.2255977 15.6461783,27.8652924 15.6381407,27.9111994 C15.572758,28.2803099 15.2515639,28.5772368 14.8768888,28.5772368 L14.8768888,28.5772368 Z M10.9075594,1.68224793 C5.74758581,1.68224793 1.54964901,5.86519154 1.54964901,11.0264017 C1.54964901,12.8187827 2.05864441,14.5533549 3.02160866,16.0574649 C3.02794599,16.0675119 3.03412874,16.0735401 3.04000236,16.0837416 C6.09799351,21.3797359 7.25695113,25.4537084 7.61632383,26.9762121 L10.9377004,26.9613735 L14.2527396,26.974821 C14.6124214,25.4526264 15.772461,21.3761808 18.8306068,16.080032 C18.8364804,16.0698304 18.8426631,16.0596289 18.8490005,16.0495819 C19.8142833,14.5419168 20.3245152,12.8152276 20.3245152,11.0264017 C20.3245152,5.86519154 16.1296698,1.68224793 10.9737149,1.68224793 L10.9553212,1.68224793 L10.9344544,1.68224793 L10.9075594,1.68224793 L10.9075594,1.68224793 Z" id="Fill-1"></path>
                <path d="M6.9549235,30.5866325 L14.8379375,30.5866325 L14.8379375,32.1323215 L6.9549235,32.1323215 L6.9549235,30.5866325 Z" id="Fill-2"></path>
                <path d="M6.9549235,34.1417172 L14.8379375,34.1417172 L14.8379375,35.6874063 L6.9549235,35.6874063 L6.9549235,34.1417172 Z" id="Fill-3"></path>
            </g>
        </g>
    </g>
</svg>