<?xml version="1.0" encoding="UTF-8" standalone="no"?>
<svg width="22px" height="32px" viewBox="0 0 22 32" version="1.1" xmlns="http://www.w3.org/2000/svg" xmlns:xlink="http://www.w3.org/1999/xlink" xmlns:sketch="http://www.bohemiancoding.com/sketch/ns">

    <g id="Page-1" stroke="none" stroke-width="1" fill="none" fill-rule="evenodd" sketch:type="MSPage">
        <g id="Fill-1-+-Fill-2" sketch:type="MSLayerGroup" fill="#ECF0F0">
            <path d="M11.0027143,32 C5.84004419,32 0.613902079,30.6886847 0.590378454,28.1821696 L0.585367505,28.0669015 C0.584949926,28.0567308 0.584810733,28.0464188 0.584810733,28.0362481 C0.584810733,24.2733678 1.64393062,20.7448376 3.56716094,18.1003116 C5.53131401,15.399423 8.17194529,13.9119566 11.0027143,13.9119566 C13.8332049,13.9119566 16.4728618,15.399423 18.4357621,18.1004529 C20.3570437,20.7445551 21.4151893,24.2730853 21.4151893,28.0362481 L21.4151893,28.1616869 C21.4151893,30.6816217 16.1770766,32 11.0027143,32 L11.0027143,32 Z M1.97674119,28.0211333 L1.98147376,28.1342825 C1.98203053,28.1445945 1.98216972,28.1547652 1.98216972,28.1649359 C1.98216972,28.9870683 5.16607146,30.5874013 11.0027143,30.5874013 C13.5287897,30.5874013 15.8946539,30.2726743 17.6646326,29.7011369 C19.2851181,29.1780516 20.0232588,28.5363081 20.0232588,28.1616869 L20.0232588,28.0362481 C20.0232588,24.5726975 19.0615741,21.3418018 17.3153973,18.9389715 C15.6216963,16.6081837 13.3797139,15.3245552 11.0027143,15.3245552 C8.62515784,15.3245552 6.3822011,16.6083249 4.68710819,18.9391127 C2.94176658,21.3389766 1.97952505,24.5637981 1.97674119,28.0211333 L1.97674119,28.0211333 Z" id="Fill-1" sketch:type="MSShapeGroup"></path>
            <path d="M11.3349723,13.2582273 C7.73307383,13.2582273 4.80278183,10.2845659 4.80278183,6.62918429 C4.80278183,2.97380272 7.73307383,0 11.3349723,0 C14.9367315,0 17.8671627,2.97380272 17.8671627,6.62918429 C17.8671627,10.2845659 14.9367315,13.2582273 11.3349723,13.2582273 L11.3349723,13.2582273 Z M11.3349723,1.41259867 C8.50058429,1.41259867 6.19471229,3.75270962 6.19471229,6.62918429 C6.19471229,9.5055177 8.50058429,11.8456286 11.3349723,11.8456286 C14.1692211,11.8456286 16.4752323,9.5055177 16.4752323,6.62918429 C16.4752323,3.75270962 14.1692211,1.41259867 11.3349723,1.41259867 L11.3349723,1.41259867 Z" id="Fill-2" sketch:type="MSShapeGroup"></path>
        </g>
    </g>
</svg>