<svg xmlns="http://www.w3.org/2000/svg" xmlns:xlink="http://www.w3.org/1999/xlink" version="1.1" id="Layer_2" x="0px" y="0px" width="351.967px" height="225.864px" viewBox="0 0 351.967 225.864" enable-background="new 0 0 351.967 225.864" xml:space="preserve">
<path fill="#FFFFFF" d="M176.548,225.327c-61.858,0-112.183-50.325-112.183-112.183S114.69,0.961,176.548,0.961  S288.73,51.287,288.73,113.144S238.406,225.327,176.548,225.327z M176.548,5.915c-59.127,0-107.229,48.103-107.229,107.229  s48.102,107.229,107.229,107.229s107.229-48.103,107.229-107.229S235.674,5.915,176.548,5.915z"/>
<g>
	<path fill="#FFFFFF" d="M207.583,70.328v-1.525c-4.945,0.186-10.035,0.186-14.985,0l0.048,1.525c1.178,0,4.478-0.046,4.478,1.709   v31.046c0,3.604-1.374,6.564-5.335,7.811v1.53c7.965-0.899,11.318-4.813,11.318-11.42V72.037   C203.108,70.282,206.405,70.328,207.583,70.328 M176.72,87.421h-8.392l4.29-11.503L176.72,87.421z M191.334,101.375v-1.526   c-1.508,0.047-4.29-1.246-4.808-2.726l-10.371-28.413c-0.472,0.047-0.943,0.047-1.415,0.047c-0.424,0-0.895,0-1.367-0.047   c-0.802,2.449-10.843,29.799-11.692,30.493c-0.565,0.508-2.875,0.6-3.724,0.693v1.478c3.582-0.185,7.401-0.185,10.984-0.047v-1.479   c-0.754-0.046-4.384-0.046-4.384-1.015c0-0.555,2.828-8.594,3.206-9.749h9.522c0,0,3.348,9.194,3.348,9.887   c0,0.785-3.819,0.785-4.479,0.877v1.526C181.104,101.189,186.383,101.189,191.334,101.375 M154.492,101.375v-1.526   c-1.179,0-4.479,0-4.479-1.708V72.037c0-1.663,3.347-1.709,4.479-1.709v-1.525c-3.395,0.186-7.024,0.186-10.419,0l-10.985,24.487   l-10.937-24.487c-3.442,0.186-7.031,0.186-10.472,0v1.531c1.131,0,4.202,0.086,4.202,1.703v26.104c0,1.708-3.024,1.708-4.202,1.708   v1.521c3.63-0.184,7.314-0.135,10.944,0.005v-1.526c-1.179,0-4.762,0-4.762-1.708V73.331l12.446,28.366h1.084l12.682-28.459v24.902   c0,1.708-3.63,1.708-4.761,1.708v1.526C143.932,101.189,149.871,101.189,154.492,101.375"/>
</g>
<rect x="110.389" y="156.452" fill="#FFFFFF" width="132.318" height="1.126"/>
<g>
	<path fill="#FFFFFF" d="M137.736,140.17c0,3.131-1.182,5.464-3.545,6.998c-2.026,1.319-4.681,1.979-7.965,1.979h-15.791v-1.519   c2.854,0,4.281-0.567,4.281-1.703v-26.013c0-0.705-0.568-1.197-1.703-1.473c-0.767-0.184-1.627-0.26-2.578-0.23l-0.046-1.519   h16.482c2.947,0,5.141,0.476,6.584,1.427c1.779,1.136,2.67,3.084,2.67,5.847c0,4.359-2.548,6.876-7.643,7.55v0.184   C134.652,132.129,137.736,134.953,137.736,140.17z M130.002,124.632c0-2.249-0.414-3.85-1.243-4.805   c-0.891-1.078-2.41-1.617-4.558-1.617c-1.627,0-2.84,0.047-3.637,0.139v12.568h3.821   C128.129,130.916,130.002,128.822,130.002,124.632z M131.429,139.802c0-2.547-0.522-4.389-1.565-5.525   c-1.044-1.136-2.824-1.704-5.341-1.704h-3.959v14.917h2.946C128.789,147.49,131.429,144.928,131.429,139.802z"/>
	<path fill="#FFFFFF" d="M171.023,149.148c-2.425-0.091-4.896-0.138-7.412-0.138c-2.517,0-4.988,0.047-7.412,0.138v-1.519   c0.798-0.06,1.611-0.122,2.44-0.184c1.289-0.122,1.933-0.353,1.933-0.691c0-0.429-1.09-3.713-3.269-9.853h-9.3   c-2.088,6.508-3.131,9.746-3.131,9.715c0,0.491,1.427,0.829,4.282,1.012v1.474c-3.745-0.153-7.32-0.138-10.727,0.046v-1.519   c0.645-0.06,1.289-0.122,1.934-0.184c0.89-0.122,1.458-0.291,1.703-0.505c0.369-0.307,2.271-5.149,5.709-14.528   c3.161-8.55,5.065-13.821,5.709-15.814c0.306,0,0.752,0,1.335,0c0.614,0,1.074,0,1.381,0l10.129,28.314   c0.245,0.707,0.89,1.343,1.934,1.911c1.043,0.568,1.964,0.836,2.762,0.805V149.148z M156.751,135.244l-4.005-11.464l-4.189,11.464   H156.751z"/>
	<path fill="#FFFFFF" d="M207.993,118.209c-2.824,0-4.236,0.567-4.236,1.702v29.376c-0.583,0-1.455,0.03-2.619,0.091l-21.23-28.314   v24.862c0,1.136,1.565,1.703,4.696,1.703v1.474c-4.236-0.184-7.843-0.168-10.819,0.046v-1.519c2.824,0,4.236-0.567,4.236-1.703   v-26.013c0-1.135-1.412-1.703-4.236-1.703l0.046-1.519c1.534,0.092,3.238,0.138,5.11,0.138c1.872,0,3.56-0.046,5.064-0.138   l17.817,23.894v-20.672c0-1.135-1.55-1.703-4.65-1.703v-1.474c3.315,0.184,6.922,0.17,10.819-0.046V118.209z"/>
	<path fill="#FFFFFF" d="M242.707,149.148c-2.364-0.153-5.509-0.138-9.438,0.047c-2.671-4.082-5.064-7.658-7.182-10.728   c-0.584-0.889-1.182-1.779-1.796-2.67c-0.736-1.074-1.412-1.903-2.025-2.486l-1.796,1.197v10.589c0,1.688,1.443,2.532,4.328,2.532   l-0.047,1.566c-2.333-0.122-4.727-0.184-7.181-0.184c-2.487,0-4.896,0.062-7.229,0.184v-1.566c2.854,0,4.281-0.567,4.281-1.703   v-26.013c0-1.135-1.427-1.703-4.281-1.703l-0.046-1.519c2.332,0.092,4.757,0.138,7.274,0.138c2.485,0,4.895-0.046,7.228-0.138   v1.519c-2.885,0-4.328,0.568-4.328,1.703v12.385c0.554-0.061,1.34-0.629,2.357-1.704c0.524-0.552,2.241-2.639,5.153-6.261   c2.912-3.621,4.352-5.479,4.321-5.57c0-0.46-0.767-0.691-2.302-0.691v-1.381c3.776,0.154,7.074,0.154,9.898,0v1.381   c-1.627,0.092-2.532,0.153-2.716,0.184c-1.197,0.185-2.026,0.509-2.486,0.968c-0.338,0.185-1.688,1.707-4.052,4.566   c-1.473,1.783-2.931,3.567-4.374,5.349c0.398,0.43,1.581,2.029,3.546,4.795c1.842,2.705,4.665,6.749,8.471,12.128   c0.491,0.646,1.151,1.077,1.98,1.291c0.306,0.062,1.119,0.155,2.44,0.277V149.148z"/>
</g>
</svg>