<?xml version="1.0" encoding="UTF-8" standalone="no"?>
<svg width="31px" height="31px" viewBox="0 0 31 31" version="1.1" xmlns="http://www.w3.org/2000/svg" xmlns:xlink="http://www.w3.org/1999/xlink" xmlns:sketch="http://www.bohemiancoding.com/sketch/ns">
    <g id="Page-1" stroke="none" stroke-width="1" fill="none" fill-rule="evenodd" sketch:type="MSPage">
        <g id="Imported-Layers" sketch:type="MSLayerGroup" fill="#ECF0F0">
            <g id="Fill-1-+-Fill-2-+-Fill-3" sketch:type="MSShapeGroup">
                <g>
                    <path d="M27.9864106,30.9874952 L2.94956763,30.9874952 C1.32573671,30.9874952 0.00479227053,29.6664758 0.00479227053,28.0427198 L0.00479227053,3.00587681 C0.00479227053,1.38212077 1.32573671,0.0611014493 2.94956763,0.0611014493 L27.9864106,0.0611014493 C29.6100918,0.0611014493 30.9311111,1.38212077 30.9311111,3.00587681 L30.9311111,28.0427198 C30.9311111,29.6664758 29.6100918,30.9874952 27.9864106,30.9874952 L27.9864106,30.9874952 Z M2.94956763,1.40892754 C2.06898792,1.40892754 1.35261836,2.1252971 1.35261836,3.00587681 L1.35261836,28.0427198 C1.35261836,28.9232995 2.06898792,29.6396691 2.94956763,29.6396691 L27.9864106,29.6396691 C28.8669903,29.6396691 29.583285,28.9232995 29.583285,28.0427198 L29.583285,3.00587681 C29.583285,2.1252971 28.8669903,1.40892754 27.9864106,1.40892754 L2.94956763,1.40892754 L2.94956763,1.40892754 Z" id="Fill-1"></path>
                    <path d="M26.0843285,26.7693237 L4.72854831,26.7693237 C4.35632367,26.7693237 4.05463527,26.4676353 4.05463527,26.0954106 L4.05463527,4.94202899 C4.05463527,4.56980435 4.35632367,4.26811594 4.72854831,4.26811594 L26.0843285,4.26811594 C26.4564783,4.26811594 26.7582415,4.56980435 26.7582415,4.94202899 L26.7582415,26.0954106 C26.7582415,26.4676353 26.4564783,26.7693237 26.0843285,26.7693237 L26.0843285,26.7693237 Z M5.40246135,25.4214976 L25.4104155,25.4214976 L25.4104155,5.61594203 L5.40246135,5.61594203 L5.40246135,25.4214976 Z" id="Fill-2"></path>
                    <path d="M18.8035217,21.115942 L12.0467198,21.115942 C11.8070314,21.115942 11.5853889,20.9886473 11.4646087,20.7816063 C11.3438285,20.5745652 11.3421063,20.3190024 11.4601159,20.110314 L13.4665048,16.5619372 C12.3242222,15.8675821 11.5758792,14.5685773 11.5758792,13.1699082 C11.5758792,11.0550942 13.3015459,9.3345942 15.4226498,9.3345942 C17.5437536,9.3345942 19.2694203,11.0705193 19.2694203,13.2042778 C19.2694203,14.581157 18.5225749,15.864587 17.3826884,16.5551232 L19.3903502,20.1106884 C19.5081353,20.3193019 19.5063382,20.5747899 19.385558,20.781756 C19.2647029,20.9887222 19.0431353,21.115942 18.8035217,21.115942 L18.8035217,21.115942 Z M13.2019565,19.7681159 L17.6490338,19.7681159 L15.852756,16.5870217 C15.7540652,16.4121787 15.7384155,16.202442 15.8101498,16.0149444 C15.8818841,15.827372 16.0334396,15.6815821 16.2236329,15.6172609 C17.2233454,15.2790314 17.9215942,14.2868068 17.9215942,13.2042778 C17.9215942,11.8136957 16.8005773,10.6824203 15.4226498,10.6824203 C14.0446473,10.6824203 12.9237053,11.7982705 12.9237053,13.1699082 C12.9237053,14.26 13.6391763,15.2922101 14.6249614,15.6240749 C14.8154541,15.6882464 14.9673841,15.8341111 15.0392681,16.0217585 C15.1111522,16.2094807 15.0954275,16.4195169 14.9965121,16.5944348 L13.2019565,19.7681159 L13.2019565,19.7681159 Z" id="Fill-3"></path>
                </g>
            </g>
        </g>
    </g>
</svg>