<?xml version="1.0" encoding="utf-8"?>
<!-- Generator: Adobe Illustrator 27.0.1, SVG Export Plug-In . SVG Version: 6.00 Build 0)  -->
<svg version="1.1" xmlns="http://www.w3.org/2000/svg" xmlns:xlink="http://www.w3.org/1999/xlink" x="0px" y="0px"
	 viewBox="0 0 330.7 286.4" style="enable-background:new 0 0 330.7 286.4;" xml:space="preserve">
<style type="text/css">
	.st0{display:none;}
	.st1{display:inline;fill:#75BEA0;}
	.st2{display:inline;}
	.st3{fill:#75BEA0;}
	.st4{fill:none;stroke:#75BEA0;stroke-width:5.8303;stroke-miterlimit:10;}
</style>
<g id="Layer_1" class="st0">
	
		<image style="display:inline;overflow:visible;" width="52" height="54" xlink:href="65BD3AC5.jpg"  transform="matrix(10.8148 0 0 10.8148 -86.4942 -56.2475)">
	</image>
	<path class="st1" d="M-14,21.1c-0.8,0.6-1.6,1.1-2.3,1.7c-2.5,1.8-5,3.6-7.5,5.4c-1.6,1.2-3.7,0.4-4.2-1.3c-0.1-0.5-0.2-1,0-1.5
		c1.1-3.5,2.3-6.9,3.4-10.4c0.1-0.4,0.2-0.7,0.4-1.1c0.1-0.2,0-0.3-0.2-0.5c-3.2-2.3-6.4-4.7-9.7-7c-1.2-0.9-1.5-2.5-0.7-3.7
		c0.5-0.7,1.3-1.1,2.2-1.1c3.9,0,7.9,0,11.8,0c0.1,0,0.3,0,0.4,0c0.7-2.3,1.5-4.5,2.2-6.7c0.6-1.8,1.2-3.5,1.7-5.3
		c0.4-1.2,1.9-1.8,3.2-1.4c0.8,0.3,1.4,0.9,1.6,1.7c0.9,2.9,1.9,5.8,2.8,8.6c0.3,0.9,0.6,1.8,0.9,2.7c0.1,0.3,0.2,0.3,0.5,0.3
		c4,0,7.9,0,11.9,0c1.2,0,2.1,0.6,2.5,1.7c0.4,1.1,0.1,2.3-0.9,3C3,8.8-0.2,11-3.3,13.3c-0.7,0.5-0.6,0.3-0.3,1
		c0.6,1.8,1.2,3.6,1.8,5.4c0.6,1.9,1.2,3.7,1.8,5.6c0.5,1.6-0.3,3.1-1.9,3.4c-0.7,0.2-1.4,0-2-0.4c-2.1-1.5-4.1-3-6.2-4.5
		C-11.4,22.9-12.7,22-14,21.1z"/>
</g>
<g id="Layer_2" class="st0">
	
		<image style="display:inline;overflow:visible;" width="112" height="112" xlink:href="65BD3AC7.jpg"  transform="matrix(4.9107 0 0 4.9107 -69.0749 -50.7959)">
	</image>
</g>
<g id="Lyn" class="st0">
	<g class="st2">
		
			<rect x="209.6" y="42.4" transform="matrix(0.6378 0.7702 -0.7702 0.6378 179.2335 -126.4414)" class="st3" width="28.9" height="169.9"/>
		
			<rect x="66.2" y="119.9" transform="matrix(0.6378 0.7702 -0.7702 0.6378 164.5451 1.4629)" class="st3" width="28.9" height="111.6"/>
		
			<rect x="115.7" y="128.5" transform="matrix(0.7702 -0.6378 0.6378 0.7702 -78.4591 122.0944)" class="st3" width="28.9" height="82.8"/>
	</g>
</g>
<g id="_x34__bjælker">
	<rect x="55" y="61.5" class="st3" width="33.6" height="173.2"/>
	<rect x="119.5" y="61.5" class="st3" width="33.6" height="173.2"/>
	<rect x="184.9" y="61.5" class="st3" width="33.6" height="173.2"/>
	<rect x="249.4" y="61.5" class="st3" width="33.6" height="173.2"/>
</g>
<g id="Screens" class="st0">
	<g class="st2">
		<path class="st3" d="M94.4,246.8v-23.9H74.2V94.6h99.3V126h6.3V90.8c0-5.5-4.5-10.1-10.1-10.1H78c-5.5,0-10.1,4.5-10.1,10.1v145.9
			c0,5.5,4.5,10.1,10.1,10.1"/>
	</g>
	<path class="st1" d="M269.2,236.7v-91.8c0-5.5-4.5-10.1-10.1-10.1H113.2c-5.5,0-10.1,4.5-10.1,10.1v91.8c0,5.5,4.5,10.1,10.1,10.1
		h145.9C264.6,246.8,269.2,242.2,269.2,236.7z M110.7,190.8c0-2.4,2-4.4,4.4-4.4c2.4,0,4.4,2,4.4,4.4c0,2.4-2,4.4-4.4,4.4
		C112.7,195.2,110.7,193.2,110.7,190.8z M127.1,240.5v-99.3h128.3v99.3H127.1z"/>
	<g class="st2">
		<path class="st4" d="M212,114.4c3.5-10.6,9.4-30.6-6.3-48.5c-17.3-19.8-48.9-19.2-68.7-0.3"/>
		<g>
			
				<rect x="206.5" y="109.3" transform="matrix(0.8637 -0.5041 0.5041 0.8637 -26.5434 126.3727)" class="st3" width="27.7" height="5.8"/>
			
				<rect x="191.5" y="105.4" transform="matrix(-0.5041 -0.8637 0.8637 -0.5041 215.3679 340.3163)" class="st3" width="27.7" height="5.8"/>
		</g>
	</g>
</g>
</svg>
