<svg id="Layer_1" width="56px" height="56px" data-name="Layer 1" xmlns="http://www.w3.org/2000/svg" viewBox="0 0 56.69 56.69"><defs><style>.round-time-hover-1{fill:#3d4c4d;}.round-time-hover-2{fill:none;stroke:#3d4d4e;stroke-linecap:round;stroke-miterlimit:10;}.round-time-hover-3{fill:#3d4d4e;}</style></defs><title>icon_02_hover</title><path class="round-time-hover-1" d="M28.41,1A27.35,27.35,0,1,1,1.06,28.35,27.38,27.38,0,0,1,28.41,1m0-1A28.35,28.35,0,1,0,56.76,28.35,28.35,28.35,0,0,0,28.41,0h0Z" transform="translate(-0.06 0)"/><path class="round-time-hover-2" d="M18.84,32.86s2.6,2.45,3.56,2.45,0.92-1.37,2.71-1.37c0.74,0,.71-4.68,1.92-4.68,1,0,1.74,1.19,2.17,1.14a0.54,0.54,0,0,0,.58-0.51c0-.27.56-5.88,1.67-5.54s1.16,6.52,2.93,11.58c0.91,1.74,1.68-2.57,1.85-3.08,0.35-1.11.87-.69,1.09-1.09" transform="translate(-0.06 0)"/><path class="round-time-hover-2" d="M18.36,20.73A14.68,14.68,0,1,1,14.13,31" transform="translate(-0.06 0)"/><polyline class="round-time-hover-2" points="16.07 33.78 14.06 31.04 12.26 33.78"/><rect class="round-time-hover-3" x="28.02" y="13.66" width="1.22" height="2.69"/><path class="round-time-hover-2" d="M30.79,16.35a4.56,4.56,0,1,0-4.19,0" transform="translate(-0.06 0)"/><rect class="round-time-hover-3" x="28.01" y="12.25" width="1.36" height="2.82" transform="translate(14.96 42.36) rotate(-90)"/><rect class="round-time-hover-3" x="36.39" y="15.92" width="1.22" height="2.69" transform="translate(13.83 -16.4) rotate(30.52)"/><rect class="round-time-hover-3" x="37" y="14.7" width="1.36" height="2.82" transform="translate(4.6 40.39) rotate(-59.48)"/></svg>