
  <svg
    width="56px"
    height="56px"
    viewBox="0 0 56 56"
    version="1.1"
    xmlns="http://www.w3.org/2000/svg"
  >
    <g
      id="Page-1"
      stroke="none"
      stroke-width="1"
      fill="none"
      fill-rule="evenodd"
      sketch:type="MSPage"
    >
      <g
        id="02_Products_expand"
        sketch:type="MSArtboardGroup"
        transform="translate(-578.000000, -270.000000)"
      >
        <g
          id="Imported-Layers"
          sketch:type="MSLayerGroup"
          transform="translate(578.100000, 270.000000)"
        >
          <path
            id="Fill-1"
            d="M0.0646726277,27.9390512 C0.0646726277,12.5256123 12.5596827,0.0306021898 27.9731217,0.0306021898 C43.3865606,0.0306021898 55.8815707,12.5256123 55.8815707,27.9390512 C55.8815707,43.3524221 43.3865606,55.8474322 27.9731217,55.8474322 C12.5596827,55.8474322 0.0646726277,43.3524221 0.0646726277,27.9390512"
            fill="#424F50"
            sketch:type="MSShapeGroup"
          ></path>
          <path
            id="Fill-2"
            d="M17.1024078,14.7546758 C18.7458134,14.7546758 20.0780967,16.0869591 20.0780967,17.7303647 C20.0780967,19.3737703 18.7458134,20.7059856 17.1024078,20.7059856 C15.4590022,20.7059856 14.1267869,19.3737703 14.1267869,17.7303647 C14.1267869,16.0869591 15.4590022,14.7546758 17.1024078,14.7546758 Z"
            fill="#75BFA1"
            sketch:type="MSShapeGroup"
          ></path>
          <path
            id="Fill-3"
            d="M14.1267869,24.6013724 C14.1267869,22.9579668 15.4590022,21.6257515 17.1024078,21.6257515 C18.7458134,21.6257515 20.0780967,22.9579668 20.0780967,24.6013724 C20.0780967,26.244778 18.7458134,27.5770613 17.1024078,27.5770613 C15.4590022,27.5770613 14.1267869,26.244778 14.1267869,24.6013724"
            fill="#75BFA1"
            sketch:type="MSShapeGroup"
          ></path>
          <path
            id="Fill-4"
            d="M14.1267869,36.4498602 C14.1267869,34.8064546 15.4590022,33.4742393 17.1024078,33.4742393 C18.7458134,33.4742393 20.0780967,34.8064546 20.0780967,36.4498602 C20.0780967,38.0932658 18.7458134,39.4255491 17.1024078,39.4255491 C15.4590022,39.4255491 14.1267869,38.0932658 14.1267869,36.4498602"
            fill="#75BFA1"
            sketch:type="MSShapeGroup"
          ></path>
          <path
            id="Fill-5"
            d="M24.0275473,29.5788526 C24.0275473,28.6227041 24.8026668,27.8475847 25.7588832,27.8475847 C26.7150316,27.8475847 27.4901511,28.6227041 27.4901511,29.5788526 C27.4901511,30.535001 26.7150316,31.3101204 25.7588832,31.3101204 C24.8026668,31.3101204 24.0275473,30.535001 24.0275473,29.5788526"
            fill="#75BFA1"
            sketch:type="MSShapeGroup"
          ></path>
          <path
            id="Fill-6"
            d="M20.0780967,25.6293339 C20.0780287,25.6293339 21.647037,27.5229294 25.7588832,27.8475847 L25.7588832,31.3101204 C25.7588832,31.3101204 22.3504113,31.2560566 20.0780967,29.795244 L20.0780967,25.6293339"
            fill="#75BFA1"
            sketch:type="MSShapeGroup"
          ></path>
          <path
            id="Fill-7"
            d="M14.1267869,24.6013724 L20.0780967,24.6013724 L20.0780967,36.4498602 L14.1267869,36.4498602 L14.1267869,24.6013724 Z"
            fill="#75BFA1"
            sketch:type="MSShapeGroup"
          ></path>
          <path
            id="Fill-8"
            d="M41.7732131,17.7303647 C41.7732131,16.0869591 40.4409978,14.7546758 38.7975922,14.7546758 C37.1541866,14.7546758 35.8219713,16.0869591 35.8219713,17.7303647 C35.8219713,19.3737703 37.1541866,20.7059856 38.7975922,20.7059856 C40.4409978,20.7059856 41.7732131,19.3737703 41.7732131,17.7303647"
            fill="#EFF3F1"
            sketch:type="MSShapeGroup"
          ></path>
          <path
            id="Fill-9"
            d="M41.7732131,24.6013724 C41.7732131,22.9579668 40.4409978,21.6257515 38.7975922,21.6257515 C37.1541866,21.6257515 35.8219713,22.9579668 35.8219713,24.6013724 C35.8219713,26.244778 37.1541866,27.5770613 38.7975922,27.5770613 C40.4409978,27.5770613 41.7732131,26.244778 41.7732131,24.6013724"
            fill="#EFF3F1"
            sketch:type="MSShapeGroup"
          ></path>
          <path
            id="Fill-10"
            d="M41.7732131,36.4498602 C41.7732131,34.8064546 40.4409978,33.4742393 38.7975922,33.4742393 C37.1541866,33.4742393 35.8219713,34.8064546 35.8219713,36.4498602 C35.8219713,38.0932658 37.1541866,39.4255491 38.7975922,39.4255491 C40.4409978,39.4255491 41.7732131,38.0932658 41.7732131,36.4498602"
            fill="#EFF3F1"
            sketch:type="MSShapeGroup"
          ></path>
          <path
            id="Fill-11"
            d="M31.8724527,29.5788526 C31.8724527,28.6227041 31.0973332,27.8475847 30.1411848,27.8475847 C29.1849684,27.8475847 28.4099169,28.6227041 28.4099169,29.5788526 C28.4099169,30.535001 29.1849684,31.3101204 30.1411848,31.3101204 C31.0973332,31.3101204 31.8724527,30.535001 31.8724527,29.5788526"
            fill="#EFF3F1"
            sketch:type="MSShapeGroup"
          ></path>
          <path
            id="Fill-12"
            d="M35.8219713,25.6293339 C35.8219713,25.6293339 34.252963,27.5229294 30.1411848,27.8475847 L30.1411848,31.3101204 C30.1411848,31.3101204 33.5496567,31.2560566 35.8219713,29.795244 L35.8219713,25.6293339"
            fill="#EFF3F1"
            sketch:type="MSShapeGroup"
          ></path>
          <path
            id="Fill-13"
            d="M35.8219713,24.6013724 L41.7732811,24.6013724 L41.7732811,36.4498602 L35.8219713,36.4498602 L35.8219713,24.6013724 Z"
            fill="#EFF3F1"
            sketch:type="MSShapeGroup"
          ></path>
        </g>
      </g>
    </g>
  </svg>
  

