
  <svg
    width="18px"
    height="18px"
    viewBox="0 0 59 46"
    version="1.1"
    xmlns="http://www.w3.org/2000/svg"
    xmlns:xlink="http://www.w3.org/1999/xlink"
  >
    <g
      id="Page-1"
      stroke="none"
      stroke-width="1"
      fill="none"
      fill-rule="evenodd"
    >
      <g id="Group-4">
        <polyline
          id="Imported-Layers"
          stroke="white"
          stroke-width="3"
          stroke-linecap="round"
          stroke-linejoin="round"
          points="21 26.6453806 28.5439547 34 38 12"
        ></polyline>
        <path
          id="Shape"
          d="M51.3,46 L7.5,46 C3.4,46 0,42.6 0,38.5 L0,7.5 C0,3.4 3.4,0 7.5,0 L51.3,0 C55.4,0 58.8,3.4 58.8,7.5 L58.8,38.5 C58.8,42.6 55.4,46 51.3,46 Z M7.5,3 C5,3 3,5 3,7.5 L3,38.5 C3,41 5,43 7.5,43 L51.3,43 C53.8,43 55.8,41 55.8,38.5 L55.8,7.5 C55.8,5 53.8,3 51.3,3 L7.5,3 Z"
          fill="white"
          fill-rule="nonzero"
        ></path>
      </g>
    </g>
  </svg>
