<?xml version="1.0" encoding="UTF-8" standalone="no"?>
<svg width="28px" height="40px" viewBox="0 0 28 40" version="1.1" xmlns="http://www.w3.org/2000/svg" xmlns:xlink="http://www.w3.org/1999/xlink" xmlns:sketch="http://www.bohemiancoding.com/sketch/ns">
    <g id="Page-1" stroke="none" stroke-width="1" fill="none" fill-rule="evenodd" sketch:type="MSPage">
        <g id="Imported-Layers" sketch:type="MSLayerGroup" fill="#ECF0F0">
            <g id="Group" sketch:type="MSShapeGroup">
                <path d="M14.3862069,17.7128954 L5.50344828,17.7128954 C5.10353103,17.7128954 4.77931034,17.3860827 4.77931034,16.9829684 C4.77931034,16.579854 5.10353103,16.2530414 5.50344828,16.2530414 L14.3862069,16.2530414 C14.7862207,16.2530414 15.1103448,16.579854 15.1103448,16.9829684 C15.1103448,17.3860827 14.7862207,17.7128954 14.3862069,17.7128954" id="Fill-1"></path>
                <path d="M23.3655172,20.6326034 L5.50344828,20.6326034 C5.10353103,20.6326034 4.77931034,20.3057908 4.77931034,19.9026764 C4.77931034,19.499562 5.10353103,19.1727494 5.50344828,19.1727494 L23.3655172,19.1727494 C23.765531,19.1727494 24.0896552,19.499562 24.0896552,19.9026764 C24.0896552,20.3057908 23.765531,20.6326034 23.3655172,20.6326034" id="Fill-2"></path>
                <path d="M23.3655172,23.5523114 L5.50344828,23.5523114 C5.10353103,23.5523114 4.77931034,23.2254988 4.77931034,22.8223844 C4.77931034,22.4192701 5.10353103,22.0924574 5.50344828,22.0924574 L23.3655172,22.0924574 C23.765531,22.0924574 24.0896552,22.4192701 24.0896552,22.8223844 C24.0896552,23.2254988 23.765531,23.5523114 23.3655172,23.5523114" id="Fill-3"></path>
                <path d="M23.3655172,26.4720195 L5.50344828,26.4720195 C5.10353103,26.4720195 4.77931034,26.1452068 4.77931034,25.7420925 C4.77931034,25.3389781 5.10353103,25.0121655 5.50344828,25.0121655 L23.3655172,25.0121655 C23.765531,25.0121655 24.0896552,25.3389781 24.0896552,25.7420925 C24.0896552,26.1452068 23.765531,26.4720195 23.3655172,26.4720195" id="Fill-4"></path>
                <path d="M23.3655172,29.3917275 L5.50344828,29.3917275 C5.10353103,29.3917275 4.77931034,29.0649148 4.77931034,28.6618005 C4.77931034,28.2586861 5.10353103,27.9318735 5.50344828,27.9318735 L23.3655172,27.9318735 C23.765531,27.9318735 24.0896552,28.2586861 24.0896552,28.6618005 C24.0896552,29.0649148 23.765531,29.3917275 23.3655172,29.3917275" id="Fill-5"></path>
                <path d="M23.3655172,32.3114355 L5.50344828,32.3114355 C5.10353103,32.3114355 4.77931034,31.9846229 4.77931034,31.5815085 C4.77931034,31.1783942 5.10353103,30.8515815 5.50344828,30.8515815 L23.3655172,30.8515815 C23.765531,30.8515815 24.0896552,31.1783942 24.0896552,31.5815085 C24.0896552,31.9846229 23.765531,32.3114355 23.3655172,32.3114355" id="Fill-6"></path>
                <path d="M23.3655172,35.2311436 L5.50344828,35.2311436 C5.10353103,35.2311436 4.77931034,34.9043309 4.77931034,34.5012165 C4.77931034,34.0981022 5.10353103,33.7712895 5.50344828,33.7712895 L23.3655172,33.7712895 C23.765531,33.7712895 24.0896552,34.0981022 24.0896552,34.5012165 C24.0896552,34.9043309 23.765531,35.2311436 23.3655172,35.2311436" id="Fill-7"></path>
                <path d="M27.2669793,39.9285645 L0.764882759,39.9285645 C0.364965517,39.9285645 0.0407448276,39.6017518 0.0407448276,39.1986375 L0.0407448276,0.760681265 C0.0407448276,0.35756691 0.364965517,0.0307542579 0.764882759,0.0307542579 L18.8758621,0.0307542579 C19.2758759,0.0307542579 19.6,0.35756691 19.6,0.760681265 C19.6,1.16379562 19.2758759,1.49060827 18.8758621,1.49060827 L1.48902069,1.49060827 L1.48902069,38.4687105 L26.5428414,38.4687105 L26.5428414,8.12652068 C26.5428414,7.72340633 26.8670621,7.39659367 27.2669793,7.39659367 C27.6669931,7.39659367 27.9911172,7.72340633 27.9911172,8.12652068 L27.9911172,39.1986375 C27.9911172,39.6017518 27.6669931,39.9285645 27.2669793,39.9285645" id="Fill-8"></path>
                <path d="M27.1793103,8.95377129 L18.7793103,8.95377129 C18.3793931,8.95377129 18.0551724,8.62695864 18.0551724,8.22384428 L18.0551724,0.827250608 C18.0551724,0.540924574 18.2212414,0.28107056 18.4799034,0.162627737 C18.7385655,0.044379562 19.0417379,0.0892457421 19.2557931,0.27756691 L27.6557931,7.67416058 C27.8829793,7.87425791 27.9633103,8.19542579 27.8572966,8.48029197 C27.7512828,8.76515815 27.481131,8.95377129 27.1793103,8.95377129 L27.1793103,8.95377129 Z M19.5034483,7.49391727 L25.2497241,7.49391727 L19.5034483,2.43406326 L19.5034483,7.49391727 L19.5034483,7.49391727 Z" id="Fill-10"></path>
            </g>
        </g>
    </g>
</svg>