<svg id="Layer_1" width="56px" height="56px" data-name="Layer 1" xmlns="http://www.w3.org/2000/svg" viewBox="0 0 56.69 56.69"><defs><style>.round-time-1{fill:#3d4c4d;}.round-time-2,.round-time-3{fill:none;stroke-miterlimit:10;}.round-time-2{stroke:#6dc2a3;}.round-time-3{stroke:#e5e9e9;}.round-time-4{fill:#e5e9e9;}</style></defs><title>icon_02</title><circle class="round-time-1" cx="28.35" cy="28.35" r="28.35"/><path class="round-time-2" d="M18.63,33s2.6,2.45,3.56,2.45,0.92-1.37,2.71-1.37c0.74,0,.71-4.68,1.92-4.68,1,0,1.74,1.19,2.17,1.14a0.54,0.54,0,0,0,.58-0.51c0-.27.56-5.88,1.67-5.54S32.41,31,34.18,36.1C35.09,37.84,35.86,33.53,36,33c0.35-1.11.87-.69,1.09-1.09" transform="translate(0 -0.19)"/><path class="round-time-3" d="M18.15,20.88a14.68,14.68,0,1,1-4.23,10.31" transform="translate(0 -0.19)"/><polyline class="round-time-3" points="15.92 33.74 13.92 31 12.12 33.74"/><rect class="round-time-4" x="27.87" y="13.63" width="1.22" height="2.69"/><path class="round-time-3" d="M30.58,16.51a4.56,4.56,0,1,0-4.19,0" transform="translate(0 -0.19)"/><rect class="round-time-4" x="27.8" y="12.41" width="1.36" height="2.82" transform="translate(14.66 42.11) rotate(-90)"/><rect class="round-time-4" x="36.18" y="16.08" width="1.22" height="2.69" transform="translate(13.94 -16.46) rotate(30.52)"/><rect class="round-time-4" x="36.79" y="14.86" width="1.36" height="2.82" transform="translate(4.43 40.09) rotate(-59.48)"/></svg>